<?xml version="1.0" standalone="no"?>
<!DOCTYPE svg PUBLIC "-//W3C//DTD SVG 1.1//EN" "http://www.w3.org/Graphics/SVG/1.1/DTD/svg11.dtd" >
<svg xmlns="http://www.w3.org/2000/svg">
<metadata>Generated by IcoMoon</metadata>
<defs>
<font id="linea-icons" horiz-adv-x="1024">
<font-face units-per-em="1024" ascent="960" descent="-64" />
<missing-glyph horiz-adv-x="1024" />
<glyph unicode="&#x20;" horiz-adv-x="512" d="" />
<glyph unicode="&#x21;" glyph-name="uni21" d="M896 960h-534l-234-234v-790h768zM352 906v-170h-170zM864-32h-704v736h224v224h480zM466 524l-130-128v-24l130-128 24 24-100 100h282v32h-282l100 100z" />
<glyph unicode="&#x22;" glyph-name="uni22" d="M128-64h768v1024h-534l-234-234zM864-32h-704v736h224v224h480zM182 736l170 170v-170zM368 384c0-76 62-160 144-160h32l-28-38 26-20 50 64v20l-50 64-26-20 28-38h-32c-64 0-112 68-112 128zM540 474l-28 38h32c64 0 112-68 112-128h32c0 76-62 160-144 160h-32l28 38-26 20-50-64v-20l50-64z" />
<glyph unicode="&#x23;" glyph-name="uni23" d="M896 960h-534l-234-234v-790h768zM352 906v-170h-170zM864-32h-704v736h224v224h480zM388 268l24-24 100 102 100-102 24 24-102 100 102 100-24 24-100-102-100 102-24-24 102-100z" />
<glyph unicode="&#x24;" glyph-name="uni24" d="M128 726v-790h768v1024h-534zM352 906v-170h-170zM864-32h-704v736h224v224h480zM352 400c0-62 50-112 112-112 26 0 48 8 66 22l114-114 24 24-114 114c14 18 22 40 22 66 0 62-50 112-112 112s-112-50-112-112zM464 480c44 0 80-36 80-80s-36-80-80-80c-44 0-80 36-80 80s36 80 80 80z" />
<glyph unicode="&#x25;" glyph-name="uni25" d="M896 960h-534l-234-234v-790h768zM352 906v-170h-170zM864-32h-704v736h224v224h480zM352 464c-8 0-14-4-16-12-2-6 2-14 8-18l86-56-32-102c-2-6 2-12 6-16 6-4 14-6 18-2l90 58 86-58c2-2 6-2 8-2 4 0 8 2 10 4 6 2 8 10 6 16l-28 102 86 56c6 4 10 12 8 18-2 8-8 12-16 12h-100l-46 118c-2 6-8 10-14 10s-12-4-16-10l-40-118zM482 442l30 86 34-86c2-6 8-10 14-10h60l-52-34c-6-4-10-12-8-18l20-70-60 40c-4 2-12 2-16 0l-62-40 22 70c2 6-2 14-8 18l-52 34h64c6 0 12 4 14 10z" />
<glyph unicode="&#x26;" glyph-name="uni26" d="M896 960h-534l-234-234v-790h768zM352 906v-170h-170zM864-32h-704v736h224v224h480zM372 430l24-24 100 100v-282h32v282l100-102 24 26-128 130h-24z" />
<glyph unicode="&#x27;" glyph-name="uni27" d="M358 816h-358v-736h1024v608h-538zM992 112h-960v672h314l128-128h518zM356 370l112-114h24l208 210-24 24-196-196-100 100z" />
<glyph unicode="&#x28;" glyph-name="uni28" d="M358 816h-358v-736h1024v608h-538zM992 112h-960v672h314l128-128h518zM388 398c-34-6-52-42-52-62 0-40 24-64 64-64h224c40 0 64 24 64 64 0 20-16 54-48 62-8 56-60 98-128 98-60 0-110-48-124-98zM512 464c46 0 96-28 96-80v-16h16c22 0 32-24 32-32 0-22-10-32-32-32h-224c-24 0-32 8-32 32 0 8 10 32 32 32h14l2 12c8 40 50 84 96 84z" />
<glyph unicode="&#x29;" glyph-name="uni29" d="M358 816h-358v-736h1024v608h-538zM992 112h-960v672h314l128-128h518zM384 208h256v352h-134l-122-122zM608 240h-192v176h112v112h80zM438 448l58 58v-58z" />
<glyph unicode="&#x2a;" glyph-name="uni2A" d="M358 816h-358v-736h1024v608h-538zM992 112h-960v672h314l128-128h518zM396 380l-24-26 128-130h24l128 130-24 24-100-100v282h-32v-282z" />
<glyph unicode="&#x2b;" glyph-name="uni2B" d="M358 816h-358v-736h1024v608h-538zM992 112h-960v672h314l128-128h518zM448 560v32h-32v-368h32v176h252l-50 80 50 80zM644 432h-196v96h196l-32-48z" />
<glyph unicode="&#x2c;" glyph-name="uni2C" d="M358 816h-358v-736h1024v608h-538zM992 112h-960v672h314l128-128h518zM464 544v-288h-16v128h-96v-128h-32v-32h384v32h-32v176h-96v-176h-16v288zM384 256v96h32v-96zM608 400h32v-144h-32zM496 256v256h32v-256z" />
<glyph unicode="&#x2d;" glyph-name="uni2D" d="M358 816h-358v-736h1024v608h-538zM992 112h-960v672h314l128-128h518zM336 432c0-114 162-202 168-206l8-4 8 4c6 4 168 92 168 206 0 54-42 96-96 96-34 0-62-18-80-42-18 24-46 42-80 42-54 0-96-42-96-96zM496 432h32c0 36 28 64 64 64 38 0 64-26 64-64 0-84-114-156-144-174-30 18-144 90-144 174 0 38 26 64 64 64 36 0 64-28 64-64z" />
<glyph unicode="&#x2e;" glyph-name="uni2E" d="M358 816h-358v-736h1024v608h-538zM992 112h-960v672h314l128-128h518zM368 400h288v-32h-288z" />
<glyph unicode="&#x2f;" glyph-name="uni2F" d="M358 816h-358v-736h1024v608h-538zM992 112h-960v672h314l128-128h518zM352 400v-32h282l-102-100 26-24 130 128v24l-130 128-24-24 100-100z" />
<glyph unicode="&#x30;" glyph-name="uni30" d="M128-64h768v1024h-534l-234-234zM864-32h-704v736h224v224h480zM182 736l170 170v-170zM448 256v176h252l-50 80 50 80h-252v32h-32v-368zM644 560l-32-48 32-48h-196v96z" />
<glyph unicode="&#x31;" glyph-name="uni31" d="M128-64h768v1024h-534l-234-234zM864-32h-704v736h224v224h480zM182 736l170 170v-170zM448 384h-96v-128h-32v-32h384v32h-32v176h-96v-176h-16v288h-96v-288h-16zM608 400h32v-144h-32zM496 512h32v-256h-32zM384 256v96h32v-96z" />
<glyph unicode="&#x32;" glyph-name="uni32" d="M128-64h768v1024h-534l-234-234zM864-32h-704v736h224v224h480zM182 736l170 170v-170zM336 432c0-114 162-202 168-206l8-4 8 4c6 4 168 92 168 206 0 54-42 96-96 96-34 0-62-18-80-42-18 24-46 42-80 42-54 0-96-42-96-96zM496 432h32c0 36 28 64 64 64 38 0 64-26 64-64 0-84-114-156-144-174-30 18-144 90-144 174 0 38 26 64 64 64 36 0 64-28 64-64z" />
<glyph unicode="&#x33;" glyph-name="uni33" d="M896 960h-534l-234-234v-790h768zM352 906v-170h-170zM864-32h-704v736h224v224h480zM368 400h288v-32h-288z" />
<glyph unicode="&#x34;" glyph-name="uni34" d="M896 960h-534l-234-234v-790h768zM352 906v-170h-170zM864-32h-704v736h224v224h480zM634 400h-282v-32h282l-102-100 26-24 130 128v24l-130 128-24-24z" />
<glyph unicode="&#x35;" glyph-name="uni35" d="M128-64h768v1024h-534l-234-234zM864-32h-704v736h224v224h480zM182 736l170 170v-170zM352 384c0-42 16-82 46-114 32-30 72-46 114-46v0c88 0 160 72 160 160 0 42-16 82-46 114-32 30-72 46-114 46s-82-16-114-46c-30-32-46-72-46-114zM512 256c-34 0-66 14-90 38s-38 56-38 90c0 28 10 56 26 78l180-178c-22-18-48-28-78-28zM512 512c34 0 66-14 90-38s38-56 38-90c0-30-10-56-28-78l-178 180c22 16 50 26 78 26z" />
<glyph unicode="&#x36;" glyph-name="uni36" d="M128-64h768v1024h-534l-234-234zM864-32h-704v736h224v224h480zM182 736l170 170v-170zM400 336c-36 0-64-28-64-64s28-64 64-64c36 0 64 28 64 64v162l128 26v-100c-10 4-20 8-32 8-36 0-64-28-64-64s28-64 64-64c36 0 64 28 64 64v260l-192-38v-198c-10 4-20 8-32 8zM400 240c-18 0-32 14-32 32s14 32 32 32c18 0 32-14 32-32s-14-32-32-32zM560 272c-18 0-32 14-32 32s14 32 32 32c18 0 32-14 32-32s-14-32-32-32zM592 524v-30l-128-26v30z" />
<glyph unicode="&#x37;" glyph-name="uni37" d="M128-64h768v1024h-534l-234-234zM864-32h-704v736h224v224h480zM182 736l170 170v-170zM354 312l-22-108 108 22 254 254-86 86zM424 254l-52-10 10 52 178 178 42-42zM624 454l-42 42 26 26 42-42z" />
<glyph unicode="&#x38;" glyph-name="uni38" d="M128-64h768v1024h-534l-234-234zM864-32h-704v736h224v224h480zM182 736l170 170v-170zM336 512v-256h352v256zM656 448c0-18-14-32-32-32s-32 14-32 32c0 18 14 32 32 32s32-14 32-32zM568 480c-4-10-8-20-8-32 0-36 28-64 64-64 12 0 22 4 32 8v-84l-96 82-30-30-64 80-98-98v138zM368 298l94 94 64-80 34 34 72-58h-264z" />
<glyph unicode="&#x39;" glyph-name="uni39" d="M896 960h-534l-234-234v-790h768zM352 906v-170h-170zM864-32h-704v736h224v224h480zM496 528v-128h-128v-32h128v-128h32v128h128v32h-128v128z" />
<glyph unicode="&#x3a;" glyph-name="uni3A" d="M358 816h-358v-736h1024v608h-538zM992 112h-960v672h314l128-128h518zM352 384c0-42 16-82 46-114 32-30 72-46 114-46v0c88 0 160 72 160 160 0 42-16 82-46 114-32 30-72 46-114 46s-82-16-114-46c-30-32-46-72-46-114zM512 256c-34 0-66 14-90 38s-38 56-38 90c0 28 10 56 26 78l180-178c-22-18-48-28-78-28zM512 512c34 0 66-14 90-38s38-56 38-90c0-30-10-56-28-78l-178 180c22 16 50 26 78 26z" />
<glyph unicode="&#x3b;" glyph-name="uni3B" d="M358 816h-358v-736h1024v608h-538zM992 112h-960v672h314l128-128h518zM432 328c-10 4-20 8-32 8-36 0-64-28-64-64s28-64 64-64c36 0 64 28 64 64v162l128 26v-100c-10 4-20 8-32 8-36 0-64-28-64-64s28-64 64-64c36 0 64 28 64 64v260l-192-38zM400 240c-18 0-32 14-32 32s14 32 32 32c18 0 32-14 32-32s-14-32-32-32zM560 272c-18 0-32 14-32 32s14 32 32 32c18 0 32-14 32-32s-14-32-32-32zM592 524v-30l-128-26v30z" />
<glyph unicode="&#x3c;" glyph-name="uni3C" d="M358 816h-358v-736h1024v608h-538zM992 112h-960v672h314l128-128h518zM332 204l108 22 254 254-86 86-254-254zM650 480l-26-26-42 42 26 26zM382 296l178 178 42-42-178-178-52-10z" />
<glyph unicode="&#x3d;" glyph-name="uni3D" d="M358 816h-358v-736h1024v608h-538zM992 112h-960v672h314l128-128h518zM336 256h352v256h-352zM368 298l94 94 64-80 34 34 72-58h-264zM624 480c18 0 32-14 32-32s-14-32-32-32c-18 0-32 14-32 32s14 32 32 32zM568 480c-4-10-8-20-8-32 0-36 28-64 64-64 12 0 22 4 32 8v-84l-96 82-30-30-64 80-98-98v138z" />
<glyph unicode="&#x3e;" glyph-name="uni3E" d="M368 400v-32h128v-128h32v128h128v32h-128v128h-32v-128zM358 816h-358v-736h1024v608h-538zM992 112h-960v672h314l128-128h518z" />
<glyph unicode="&#x3f;" glyph-name="uni3F" d="M358 816h-358v-736h1024v608h-538zM992 112h-960v672h314l128-128h518zM466 524l-130-128v-24l130-128 24 24-100 100h282v32h-282l100 100z" />
<glyph unicode="&#x40;" glyph-name="uni40" d="M358 816h-358v-736h1024v608h-538zM992 112h-960v672h314l128-128h518zM516 294l28-38h-32c-64 0-112 68-112 128h-32c0-76 62-160 144-160h32l-28-38 26-20 50 64v20l-50 64zM464 518l50-64 26 20-28 38h32c64 0 112-68 112-128h32c0 76-62 160-144 160h-32l28 38-26 20-50-64z" />
<glyph unicode="&#x41;" glyph-name="uni41" d="M848 880h-128v-64h-416v64h-128v-64h-176v-800h1024v800h-176zM752 848h64v-96h-64zM208 848h64v-96h-64zM32 48v608h960v-608zM992 784v-96h-960v96h144v-64h128v64h416v-64h128v64z" />
<glyph unicode="&#x42;" glyph-name="uni42" d="M848 880h-128v-64h-416v64h-128v-64h-176v-800h1024v800h-176zM752 848h64v-96h-64zM208 848h64v-96h-64zM32 48v608h960v-608zM992 784v-96h-960v96h144v-64h128v64h416v-64h128v64zM448 496v32h-32v-368h32v176h252l-50 80 50 80zM644 368h-196v96h196l-32-48z" />
<glyph unicode="&#x43;" glyph-name="uni43" d="M848 880h-128v-64h-416v64h-128v-64h-176v-800h1024v800h-176zM752 848h64v-96h-64zM208 848h64v-96h-64zM32 48v608h960v-608zM992 784v-96h-960v96h144v-64h128v64h416v-64h128v64zM592 496c-34 0-62-18-80-42-18 24-46 42-80 42-54 0-96-42-96-96 0-114 162-202 168-206l8-4 8 4c6 4 168 92 168 206 0 54-42 96-96 96zM512 226c-30 18-144 90-144 174 0 38 26 64 64 64 36 0 64-28 64-64h32c0 36 28 64 64 64 38 0 64-26 64-64 0-84-114-156-144-174z" />
<glyph unicode="&#x44;" glyph-name="uni44" d="M368 368h288v-32h-288zM848 880h-128v-64h-416v64h-128v-64h-176v-800h1024v800h-176zM752 848h64v-96h-64zM208 848h64v-96h-64zM32 48v608h960v-608zM992 784v-96h-960v96h144v-64h128v64h416v-64h128v64z" />
<glyph unicode="&#x45;" glyph-name="uni45" d="M848 880h-128v-64h-416v64h-128v-64h-176v-800h1024v800h-176zM752 848h64v-96h-64zM208 848h64v-96h-64zM32 48v608h960v-608zM992 784v-96h-960v96h144v-64h128v64h416v-64h128v64zM532 468l102-100h-282v-32h282l-102-100 26-24 130 128v24l-130 128z" />
<glyph unicode="&#x46;" glyph-name="uni46" d="M848 880h-128v-64h-416v64h-128v-64h-176v-800h1024v800h-176zM752 848h64v-96h-64zM208 848h64v-96h-64zM32 48v608h960v-608zM992 784v-96h-960v96h144v-64h128v64h416v-64h128v64zM512 512c-42 0-82-16-114-46-30-32-46-72-46-114s16-82 46-114c32-30 72-46 114-46v0c88 0 160 72 160 160 0 42-16 82-46 114-32 30-72 46-114 46zM512 224c-34 0-66 14-90 38s-38 56-38 90c0 28 10 56 26 78l180-178c-22-18-48-28-78-28zM612 274l-178 180c22 16 50 26 78 26 34 0 66-14 90-38s38-56 38-90c0-30-10-56-28-78z" />
<glyph unicode="&#x47;" glyph-name="uni47" d="M848 880h-128v-64h-416v64h-128v-64h-176v-800h1024v800h-176zM752 848h64v-96h-64zM208 848h64v-96h-64zM32 48v608h960v-608zM992 784v-96h-960v96h144v-64h128v64h416v-64h128v64zM354 280l-22-108 108 22 254 254-86 86zM424 222l-52-10 10 52 178 178 42-42zM624 422l-42 42 26 26 42-42z" />
<glyph unicode="&#x48;" glyph-name="uni48" d="M848 880h-128v-64h-416v64h-128v-64h-176v-800h1024v800h-176zM752 848h64v-96h-64zM208 848h64v-96h-64zM32 48v608h960v-608zM992 784v-96h-960v96h144v-64h128v64h416v-64h128v64zM528 496h-32v-128h-128v-32h128v-128h32v128h128v32h-128z" />
<glyph unicode="&#x49;" glyph-name="uni49" d="M848 880h-128v-64h-416v64h-128v-64h-176v-800h1024v800h-176zM752 848h64v-96h-64zM208 848h64v-96h-64zM32 48v608h960v-608zM992 784v-96h-960v96h144v-64h128v64h416v-64h128v64zM492 468l-26 24-130-128v-24l130-128 24 24-100 100h282v32h-282z" />
<glyph unicode="&#x4a;" glyph-name="uni4A" d="M516 262l28-38h-32c-64 0-112 68-112 128h-32c0-76 62-160 144-160h32l-28-38 26-20 50 64v20l-50 64zM544 512h-32l28 38-26 20-50-64v-20l50-64 26 20-28 38h32c64 0 112-68 112-128h32c0 76-62 160-144 160zM848 880h-128v-64h-416v64h-128v-64h-176v-800h1024v800h-176zM752 848h64v-96h-64zM208 848h64v-96h-64zM32 48v608h960v-608zM992 784v-96h-960v96h144v-64h128v64h416v-64h128v64z" />
<glyph unicode="&#x4b;" glyph-name="uni4B" d="M612 476l-100-102-100 102-24-24 102-100-102-100 24-24 100 102 100-102 24 24-102 100 102 100zM848 880h-128v-64h-416v64h-128v-64h-176v-800h1024v800h-176zM752 848h64v-96h-64zM208 848h64v-96h-64zM32 48v608h960v-608zM992 784v-96h-960v96h144v-64h128v64h416v-64h128v64z" />
<glyph unicode="&#x4c;" glyph-name="uni4C" d="M576 400c0 62-50 112-112 112s-112-50-112-112c0-62 50-112 112-112 26 0 48 8 66 22l114-114 24 24-114 114c14 18 22 40 22 66zM384 400c0 44 36 80 80 80s80-36 80-80c0-44-36-80-80-80s-80 36-80 80zM848 880h-128v-64h-416v64h-128v-64h-176v-800h1024v800h-176zM752 848h64v-96h-64zM208 848h64v-96h-64zM32 48v608h960v-608zM992 784v-96h-960v96h144v-64h128v64h416v-64h128v64z" />
<glyph unicode="&#x4d;" glyph-name="uni4D" d="M848 880h-128v-64h-416v64h-128v-64h-176v-800h1024v800h-176zM752 848h64v-96h-64zM208 848h64v-96h-64zM32 48v608h960v-608zM992 784v-96h-960v96h144v-64h128v64h416v-64h128v64zM672 400h-100l-46 118c-2 6-8 10-14 10s-12-4-16-10l-40-118h-104c-8 0-14-4-16-12-2-6 2-14 8-18l86-56-32-102c-2-6 2-12 6-16 6-4 14-6 18-2l90 58 86-58c2-2 6-2 8-2 4 0 8 2 10 4 6 2 8 10 6 16l-28 102 86 56c6 4 10 12 8 18-2 8-8 12-16 12zM568 334c-6-4-10-12-8-18l20-70-60 40c-4 2-12 2-16 0l-62-40 22 70c2 6-2 14-8 18l-52 34h64c6 0 12 4 14 10l30 86 34-86c2-6 8-10 14-10h60z" />
<glyph unicode="&#x4e;" glyph-name="uni4E" d="M500 528l-128-130 24-24 100 100v-282h32v282l100-102 24 26-128 130zM848 880h-128v-64h-416v64h-128v-64h-176v-800h1024v800h-176zM752 848h64v-96h-64zM208 848h64v-96h-64zM32 48v608h960v-608zM992 784v-96h-960v96h144v-64h128v64h416v-64h128v64z" />
<glyph unicode="&#x4f;" glyph-name="uni4F" d="M480 326l-100 102-24-26 112-114h24l208 210-24 24zM896 432c-8 178-162 320-350 320-168 0-316-110-350-256h-14c-100 0-182-78-182-176s78-176 176-176h704c80 0 144 64 144 144 0 76-56 136-128 144zM880 176h-704c-80 0-144 64-144 144s66 144 150 144h40l2 12c26 140 164 244 322 244 174 0 318-136 318-304v-16h16c62 0 112-50 112-112s-50-112-112-112z" />
<glyph unicode="&#x50;" glyph-name="uni50" d="M896 432c-8 178-162 320-350 320-168 0-316-110-350-256h-14c-100 0-182-78-182-176s78-176 176-176h704c80 0 144 64 144 144 0 76-56 136-128 144zM880 176h-704c-80 0-144 64-144 144s66 144 150 144h40l2 12c26 140 164 244 322 244 174 0 318-136 318-304v-16h16c62 0 112-50 112-112s-50-112-112-112zM528 278v282h-32v-282l-100 102-24-26 128-130h24l128 130-24 24z" />
<glyph unicode="&#x51;" glyph-name="uni51" d="M896 432c-8 178-162 320-350 320-168 0-316-110-350-256h-14c-100 0-182-78-182-176s78-176 176-176h704c80 0 144 64 144 144 0 76-56 136-128 144zM880 176h-704c-80 0-144 64-144 144s66 144 150 144h40l2 12c26 140 164 244 322 244 174 0 318-136 318-304v-16h16c62 0 112-50 112-112s-50-112-112-112zM368 432h288v-32h-288z" />
<glyph unicode="&#x52;" glyph-name="uni52" d="M896 432c-8 178-162 320-350 320-168 0-316-110-350-256h-14c-100 0-182-78-182-176s78-176 176-176h704c80 0 144 64 144 144 0 76-56 136-128 144zM880 176h-704c-80 0-144 64-144 144s66 144 150 144h40l2 12c26 140 164 244 322 244 174 0 318-136 318-304v-16h16c62 0 112-50 112-112s-50-112-112-112zM512 576c-42 0-82-16-114-46-30-32-46-72-46-114s16-82 46-114c32-30 72-46 114-46v0c88 0 160 72 160 160 0 42-16 82-46 114-32 30-72 46-114 46zM512 288c-34 0-66 14-90 38s-38 56-38 90c0 28 10 56 26 78l180-178c-22-18-48-28-78-28zM612 338l-178 180c22 16 50 26 78 26 34 0 66-14 90-38s38-56 38-90c0-30-10-56-28-78z" />
<glyph unicode="&#x53;" glyph-name="uni53" d="M896 432c-8 178-162 320-350 320-168 0-316-110-350-256h-14c-100 0-182-78-182-176s78-176 176-176h704c80 0 144 64 144 144 0 76-56 136-128 144zM880 176h-704c-80 0-144 64-144 144s66 144 150 144h40l2 12c26 140 164 244 322 244 174 0 318-136 318-304v-16h16c62 0 112-50 112-112s-50-112-112-112zM528 560h-32v-128h-128v-32h128v-128h32v128h128v32h-128z" />
<glyph unicode="&#x54;" glyph-name="uni54" d="M896 432c-8 178-162 320-350 320-168 0-316-110-350-256h-14c-100 0-182-78-182-176s78-176 176-176h704c80 0 144 64 144 144 0 76-56 136-128 144zM880 176h-704c-80 0-144 64-144 144s66 144 150 144h40l2 12c26 140 164 244 322 244 174 0 318-136 318-304v-16h16c62 0 112-50 112-112s-50-112-112-112zM516 358l28-38h-32c-64 0-112 68-112 128h-32c0-76 62-160 144-160h32l-28-38 26-20 50 64v20l-50 64zM544 608h-32l28 38-26 20-50-64v-20l50-64 26 20-28 38h32c64 0 112-68 112-128h32c0 76-62 160-144 160z" />
<glyph unicode="&#x55;" glyph-name="uni55" d="M896 432c-8 178-162 320-350 320-168 0-316-110-350-256h-14c-100 0-182-78-182-176s78-176 176-176h704c80 0 144 64 144 144 0 76-56 136-128 144zM880 176h-704c-80 0-144 64-144 144s66 144 150 144h40l2 12c26 140 164 244 322 244 174 0 318-136 318-304v-16h16c62 0 112-50 112-112s-50-112-112-112zM612 540l-100-102-100 102-24-24 102-100-102-100 24-24 100 102 100-102 24 24-102 100 102 100z" />
<glyph unicode="&#x56;" glyph-name="uni56" d="M896 432c-8 178-162 320-350 320-168 0-316-110-350-256h-14c-100 0-182-78-182-176s78-176 176-176h704c80 0 144 64 144 144 0 76-56 136-128 144zM880 176h-704c-80 0-144 64-144 144s66 144 150 144h40l2 12c26 140 164 244 322 244 174 0 318-136 318-304v-16h16c62 0 112-50 112-112s-50-112-112-112zM576 464c0 62-50 112-112 112s-112-50-112-112c0-62 50-112 112-112 26 0 48 8 66 22l114-114 24 24-114 114c14 18 22 40 22 66zM384 464c0 44 36 80 80 80s80-36 80-80c0-44-36-80-80-80s-80 36-80 80z" />
<glyph unicode="&#x57;" glyph-name="uni57" d="M896 432c-8 178-162 320-350 320-168 0-316-110-350-256h-14c-100 0-182-78-182-176s78-176 176-176h704c80 0 144 64 144 144 0 76-56 136-128 144zM880 176h-704c-80 0-144 64-144 144s66 144 150 144h40l2 12c26 140 164 244 322 244 174 0 318-136 318-304v-16h16c62 0 112-50 112-112s-50-112-112-112zM500 560l-128-130 24-24 100 100v-282h32v282l100-102 24 26-128 130z" />
<glyph unicode="&#x58;" glyph-name="uni58" d="M896 960h-534l-234-234v-790h768zM352 906v-170h-170zM864-32h-704v736h224v224h480zM380 396l-24-26 112-114h24l208 210-24 24-196-196z" />
<glyph unicode="&#x59;" glyph-name="uni59" d="M128-64h768v1024h-534l-234-234zM864-32h-704v736h224v224h480zM182 736l170 170v-170zM336 336c0-40 24-64 64-64h224c40 0 64 24 64 64 0 20-16 54-48 62-8 56-60 98-128 98-60 0-110-48-124-98-34-6-52-42-52-62zM414 368l2 12c8 40 50 84 96 84s96-28 96-80v-16h16c22 0 32-24 32-32 0-22-10-32-32-32h-224c-24 0-32 8-32 32 0 8 10 32 32 32z" />
<glyph unicode="&#x5a;" glyph-name="uni5A" d="M896 960h-534l-234-234v-790h768zM352 906v-170h-170zM864-32h-704v736h224v224h480zM396 380l-24-26 128-130h24l128 130-24 24-100-100v282h-32v-282z" />
<glyph unicode="&#x5b;" glyph-name="uni5B" d="M358 816h-358v-736h1024v608h-538zM992 112h-960v672h314l128-128h518zM412 492l-24-24 102-100-102-100 24-24 100 102 100-102 24 24-102 100 102 100-24 24-100-102z" />
<glyph unicode="&#x5c;" glyph-name="uni5C" d="M864 960h-704v-338l-160-68v-618h1024v618l-160 68zM832 928v-476l-320-200-320 200v476zM160 472l-110 70 110 46zM32-32v548l480-302 480 302v-548zM974 542l-110-70v116zM504 450l8-4 8 4c6 4 168 92 168 206 0 54-42 96-96 96-34 0-62-18-80-42-18 24-46 42-80 42-54 0-96-42-96-96 0-114 162-202 168-206zM432 720c36 0 64-28 64-64h32c0 36 28 64 64 64 38 0 64-26 64-64 0-84-114-156-144-174-30 18-144 90-144 174 0 38 26 64 64 64z" />
<glyph unicode="&#x5d;" glyph-name="uni5D" d="M358 816h-358v-736h1024v608h-538zM992 112h-960v672h314l128-128h518zM352 400c0-62 50-112 112-112 26 0 48 8 66 22l114-114 24 24-114 114c14 18 22 40 22 66 0 62-50 112-112 112s-112-50-112-112zM544 400c0-44-36-80-80-80s-80 36-80 80c0 44 36 80 80 80s80-36 80-80z" />
<glyph unicode="&#x5e;" glyph-name="uni5E" d="M358 816h-358v-736h1024v608h-538zM992 112h-960v672h314l128-128h518zM352 432c-8 0-14-4-16-12-2-6 2-14 8-18l86-56-32-102c-2-6 2-12 6-16 6-4 14-6 18-2l90 58 86-58c2-2 6-2 10-2 2 0 6 0 8 4 6 2 8 10 6 16l-28 102 86 56c6 4 10 12 8 18-2 8-8 12-16 12h-100l-46 118c-2 6-8 10-14 10 0 0 0 0 0 0-6 0-12-4-16-10l-40-118zM482 410l30 86 34-86c2-6 8-10 14-10h60l-52-34c-6-4-10-12-8-18l20-70-60 40c-4 2-12 2-16 0l-62-40 22 70c2 6-2 14-8 18l-52 34h64c6 0 12 4 14 10z" />
<glyph unicode="&#x5f;" glyph-name="uni5F" d="M358 816h-358v-736h1024v608h-538zM992 112h-960v672h314l128-128h518zM396 404l100 102v-282h32v282l100-102 24 26-128 130h-24l-128-130z" />
<glyph unicode="&#x60;" glyph-name="uni60" d="M492 512l208 210-24 24-196-196-100 102-24-26 112-114zM864 960h-704v-338l-160-68v-618h1024v618l-160 68zM832 928v-476l-320-200-320 200v476zM160 472l-110 70 110 46zM32-32v548l480-302 480 302v-548zM974 542l-110-70v116z" />
<glyph unicode="&#x61;" glyph-name="uni61" d="M512 170l240-240v1030h-480v-1030zM304 928h416v-922l-208 208-208-208zM676 716l-196-198-100 102-24-26 112-114h24l208 210z" />
<glyph unicode="&#x62;" glyph-name="uni62" d="M368 624h288v-32h-288zM512 170l240-240v1030h-480v-1030zM304 928h416v-922l-208 208-208-208z" />
<glyph unicode="&#x63;" glyph-name="uni63" d="M528 464v128h128v32h-128v128h-32v-128h-128v-32h128v-128zM512 170l240-240v1030h-480v-1030zM304 928h416v-922l-208 208-208-208z" />
<glyph unicode="&#x64;" glyph-name="uni64" d="M512 170l240-240v1030h-480v-1030zM304 928h416v-922l-208 208-208-208zM612 484l24 24-102 100 102 100-24 24-100-102-100 102-24-24 102-100-102-100 24-24 100 102z" />
<glyph unicode="&#x65;" glyph-name="uni65" d="M960 320h-2l-96 640h-700l-96-640h-2v-384h896zM190 928h644l92-608h-254v-16c0-88-72-160-160-160s-160 72-160 160v16h-254zM928-32h-832v320h224c8-98 92-176 192-176s184 78 192 176h224zM492 480l208 210-24 24-196-196-100 102-24-26 112-114z" />
<glyph unicode="&#x66;" glyph-name="uni66" d="M960 320h-2l-96 640h-700l-96-640h-2v-384h896zM190 928h644l92-608h-254v-16c0-88-72-160-160-160s-160 72-160 160v16h-254zM928-32h-832v320h224c8-98 92-176 192-176s184 78 192 176h224zM524 416l128 130-24 24-100-100v282h-32v-282l-100 102-24-26 128-130z" />
<glyph unicode="&#x67;" glyph-name="uni67" d="M960 320h-2l-96 640h-700l-96-640h-2v-384h896zM190 928h644l92-608h-254v-16c0-88-72-160-160-160s-160 72-160 160v16h-254zM928-32h-832v320h224c8-98 92-176 192-176s184 78 192 176h224zM448 592h252l-50 80 50 80h-252v32h-32v-368h32zM644 720l-32-48 32-48h-196v96z" />
<glyph unicode="&#x68;" glyph-name="uni68" d="M960 320h-2l-96 640h-700l-96-640h-2v-384h896zM190 928h644l92-608h-254v-16c0-88-72-160-160-160s-160 72-160 160v16h-254zM928-32h-832v320h224c8-98 92-176 192-176s184 78 192 176h224zM368 592h288v-32h-288z" />
<glyph unicode="&#x69;" glyph-name="uni69" d="M960 320h-2l-96 640h-700l-96-640h-2v-384h896zM190 928h644l92-608h-254v-16c0-88-72-160-160-160s-160 72-160 160v16h-254zM928-32h-832v320h224c8-98 92-176 192-176s184 78 192 176h224zM496 432h32v128h128v32h-128v128h-32v-128h-128v-32h128z" />
<glyph unicode="&#x6a;" glyph-name="uni6A" d="M960 320h-2l-96 640h-700l-96-640h-2v-384h896zM190 928h644l92-608h-254v-16c0-88-72-160-160-160s-160 72-160 160v16h-254zM928-32h-832v320h224c8-98 92-176 192-176s184 78 192 176h224zM512 416h32l-28-38 26-20 50 64v20l-50 64-26-20 28-38h-32c-64 0-112 68-112 128h-32c0-76 62-160 144-160zM540 666l-28 38h32c64 0 112-68 112-128h32c0 76-62 160-144 160h-32l28 38-26 20-50-64v-20l50-64z" />
<glyph unicode="&#x6b;" glyph-name="uni6B" d="M960 320h-2l-96 640h-700l-96-640h-2v-384h896zM190 928h644l92-608h-254v-16c0-88-72-160-160-160s-160 72-160 160v16h-254zM928-32h-832v320h224c8-98 92-176 192-176s184 78 192 176h224zM412 452l100 102 100-102 24 24-102 100 102 100-24 24-100-102-100 102-24-24 102-100-102-100z" />
<glyph unicode="&#x6c;" glyph-name="uni6C" d="M960 320h-2l-96 640h-700l-96-640h-2v-384h896zM190 928h644l92-608h-254v-16c0-88-72-160-160-160s-160 72-160 160v16h-254zM928-32h-832v320h224c8-98 92-176 192-176s184 78 192 176h224zM464 512c26 0 48 8 66 22l114-114 24 24-114 114c14 18 22 40 22 66 0 62-50 112-112 112s-112-50-112-112c0-62 50-112 112-112zM464 704c44 0 80-36 80-80s-36-80-80-80c-44 0-80 36-80 80s36 80 80 80z" />
<glyph unicode="&#x6d;" glyph-name="uni6D" d="M960 320h-2l-96 640h-700l-96-640h-2v-384h896zM190 928h644l92-608h-254v-16c0-88-72-160-160-160s-160 72-160 160v16h-254zM928-32h-832v320h224c8-98 92-176 192-176s184 78 192 176h224zM398 468c-2-6 2-12 6-16 6-4 14-6 18-2l90 58 86-58c2-2 6-2 10-2 2 0 6 0 8 4 6 2 8 10 6 16l-28 102 86 56c6 4 10 12 8 18-2 8-8 12-16 12h-100l-46 118c-2 6-8 10-14 10s-12-4-16-10l-40-118h-104c-8 0-14-4-16-12-2-6 2-14 8-18l86-56zM404 624h64c6 0 12 4 14 10l30 86 34-86c2-6 8-10 14-10h60l-52-34c-6-4-10-12-8-18l20-70-60 40c-4 2-12 2-16 0l-62-40 22 70c2 6-2 14-8 18z" />
<glyph unicode="&#x6e;" glyph-name="uni6E" d="M960 320h-2l-96 640h-700l-96-640h-2v-384h896zM190 928h644l92-608h-254v-16c0-88-72-160-160-160s-160 72-160 160v16h-254zM928-32h-832v320h224c8-98 92-176 192-176s184 78 192 176h224zM496 698v-282h32v282l100-102 24 26-128 130h-24l-128-130 24-24z" />
<glyph unicode="&#x6f;" glyph-name="uni6F" d="M0 32h1024v832h-1024zM32 64v640h960v-640zM992 832v-96h-960v96zM96 800h64v-32h-64zM224 800h64v-32h-64zM352 800h64v-32h-64zM480 310l-100 102-24-26 112-114h24l208 210-24 24z" />
<glyph unicode="&#x70;" glyph-name="uni70" d="M0 32h1024v832h-1024zM32 64v640h960v-640zM992 832v-96h-960v96zM96 800h64v-32h-64zM224 800h64v-32h-64zM352 800h64v-32h-64zM528 262v282h-32v-282l-100 102-24-26 128-130h24l128 130-24 24z" />
<glyph unicode="&#x71;" glyph-name="uni71" d="M0 32h1024v832h-1024zM32 64v640h960v-640zM992 832v-96h-960v96zM96 800h64v-32h-64zM224 800h64v-32h-64zM352 800h64v-32h-64zM368 384h288v-32h-288z" />
<glyph unicode="&#x72;" glyph-name="uni72" d="M0 32h1024v832h-1024zM32 64v640h960v-640zM992 832v-96h-960v96zM96 800h64v-32h-64zM224 800h64v-32h-64zM352 800h64v-32h-64zM528 512h-32v-128h-128v-32h128v-128h32v128h128v32h-128z" />
<glyph unicode="&#x73;" glyph-name="uni73" d="M0 32h1024v832h-1024zM32 64v640h960v-640zM992 832v-96h-960v96zM516 278l28-38h-32c-64 0-112 68-112 128h-32c0-76 62-160 144-160h32l-28-38 26-20 50 64v20l-50 64zM544 528h-32l28 38-26 20-50-64v-20l50-64 26 20-28 38h32c64 0 112-68 112-128h32c0 76-62 160-144 160zM96 800h64v-32h-64zM224 800h64v-32h-64zM352 800h64v-32h-64z" />
<glyph unicode="&#x74;" glyph-name="uni74" d="M0 32h1024v832h-1024zM32 64v640h960v-640zM992 832v-96h-960v96zM96 800h64v-32h-64zM224 800h64v-32h-64zM352 800h64v-32h-64zM612 492l-100-102-100 102-24-24 102-100-102-100 24-24 100 102 100-102 24 24-102 100 102 100z" />
<glyph unicode="&#x75;" glyph-name="uni75" d="M0 32h1024v832h-1024zM32 64v640h960v-640zM992 832v-96h-960v96zM96 800h64v-32h-64zM224 800h64v-32h-64zM352 800h64v-32h-64zM576 432c0 62-50 112-112 112s-112-50-112-112c0-62 50-112 112-112 26 0 48 8 66 22l114-114 24 24-114 114c14 18 22 40 22 66zM384 432c0 44 36 80 80 80s80-36 80-80c0-44-36-80-80-80s-80 36-80 80z" />
<glyph unicode="&#x76;" glyph-name="uni76" d="M0 32h1024v832h-1024zM32 64v640h960v-640zM992 832v-96h-960v96zM672 432h-100l-46 118c-2 6-8 10-14 10s-12-4-16-10l-40-118h-104c-8 0-14-4-16-12-2-6 2-14 8-18l86-56-32-102c-2-6 2-12 6-16 6-4 14-6 18-2l90 58 86-58c2-2 6-2 8-2 4 0 8 2 10 4 6 2 8 10 6 16l-28 102 86 56c6 4 10 12 8 18-2 8-8 12-16 12zM568 366c-6-4-10-12-8-18l20-70-60 40c-4 2-12 2-16 0l-62-40 22 70c2 6-2 14-8 18l-52 34h64c6 0 12 4 14 10l30 86 34-86c2-6 8-10 14-10h60zM96 800h64v-32h-64zM224 800h64v-32h-64zM352 800h64v-32h-64z" />
<glyph unicode="&#x77;" glyph-name="uni77" d="M0 32h1024v832h-1024zM32 64v640h960v-640zM992 832v-96h-960v96zM96 800h64v-32h-64zM224 800h64v-32h-64zM352 800h64v-32h-64zM500 544l-128-130 24-24 100 100v-282h32v282l100-102 24 26-128 130z" />
<glyph unicode="&#x78;" glyph-name="uni78" d="M480 294l-100 102-24-26 112-114h24l208 210-24 24zM848 880h-128v-64h-416v64h-128v-64h-176v-800h1024v800h-176zM752 848h64v-96h-64zM208 848h64v-96h-64zM32 48v608h960v-608zM992 784v-96h-960v96h144v-64h128v64h416v-64h128v64z" />
<glyph unicode="&#x79;" glyph-name="uni79" d="M848 880h-128v-64h-416v64h-128v-64h-176v-800h1024v800h-176zM752 848h64v-96h-64zM208 848h64v-96h-64zM32 48v608h960v-608zM992 784v-96h-960v96h144v-64h128v64h416v-64h128v64zM640 366c-8 56-60 98-128 98-60 0-110-48-124-98-34-6-52-42-52-62 0-40 24-64 64-64h224c40 0 64 24 64 64 0 20-16 54-48 62zM624 272h-224c-24 0-32 8-32 32 0 8 10 32 32 32h14l2 12c8 40 50 84 96 84s96-28 96-80v-16h16c22 0 32-24 32-32 0-22-10-32-32-32z" />
<glyph unicode="&#x7a;" glyph-name="uni7A" d="M528 246v282h-32v-282l-100 102-24-26 128-130h24l128 130-24 24zM848 880h-128v-64h-416v64h-128v-64h-176v-800h1024v800h-176zM752 848h64v-96h-64zM208 848h64v-96h-64zM32 48v608h960v-608zM992 784v-96h-960v96h144v-64h128v64h416v-64h128v64z" />
<glyph unicode="&#x7b;" glyph-name="uni7B" d="M400 496h224c40 0 64 24 64 64 0 20-16 54-48 62-8 56-60 98-128 98-60 0-110-48-124-98-34-6-52-42-52-62 0-40 24-64 64-64zM400 592h14l2 12c8 40 50 84 96 84s96-28 96-80v-16h16c22 0 32-24 32-32 0-22-10-32-32-32h-224c-24 0-32 8-32 32 0 8 10 32 32 32zM864 960h-704v-338l-160-68v-618h1024v618l-160 68zM832 928v-476l-320-200-320 200v476zM160 472l-110 70 110 46zM32-32v548l480-302 480 302v-548zM974 542l-110-70v116z" />
<glyph unicode="&#x7c;" glyph-name="uni7C" d="M640 816h-134l-122-122v-230h256zM496 762v-58h-58zM608 496h-192v176h112v112h80zM864 960h-704v-338l-160-68v-618h1024v618l-160 68zM832 928v-476l-320-200-320 200v476zM160 472l-110 70 110 46zM32-32v548l480-302 480 302v-548zM974 542l-110-70v116z" />
<glyph unicode="&#x7d;" glyph-name="uni7D" d="M524 448l128 130-24 24-100-100v282h-32v-282l-100 102-24-26 128-130zM864 960h-704v-338l-160-68v-618h1024v618l-160 68zM832 928v-476l-320-200-320 200v476zM160 472l-110 70 110 46zM32-32v548l480-302 480 302v-548zM974 542l-110-70v116z" />
<glyph unicode="&#x7e;" glyph-name="uni7E" d="M864 960h-704v-338l-160-68v-618h1024v618l-160 68zM832 928v-476l-320-200-320 200v476zM160 472l-110 70 110 46zM32-32v548l480-302 480 302v-548zM974 542l-110-70v116zM448 624h252l-50 80 50 80h-252v32h-32v-368h32zM644 752l-32-48 32-48h-196v96z" />
<glyph unicode="&#x7f;" glyph-name="uni7F" d="M272 460v-24l228-176 28 12v352l-28 12zM496 304l-182 144 182 144zM592 460v-24l228-176 28 12v352l-28 12zM816 304l-182 144 182 144zM176 592h32v-288h-32zM512 960c-136 0-266-54-362-150s-150-226-150-362c0-136 54-266 150-362s226-150 362-150c136 0 266 54 362 150s150 226 150 362c0 136-54 266-150 362s-226 150-362 150zM852 108c-92-90-212-140-340-140s-248 50-340 140c-90 92-140 212-140 340s50 248 140 340c92 90 212 140 340 140s248-50 340-140c90-92 140-212 140-340s-50-248-140-340z" />
<glyph unicode="&#x80;" glyph-name="uni80" d="M816 560c0 140-96 258-224 292v108h-160v-108c-128-34-224-152-224-292v-298l-112-112v-86h256c8-72 70-128 144-128s136 56 144 128h288v86l-112 112zM784 320h-544v64h544zM464 928h96v-68c-16 2-32 4-48 4s-32-2-48-4zM512 832c150 0 272-122 272-272v-144h-544v144c0 150 122 272 272 272zM496-32c-56 0-102 42-110 96h220c-8-54-54-96-110-96zM896 138v-42h-768v42l112 112v38h544v-38z" />
<glyph unicode="&#x81;" glyph-name="uni81" d="M512 960c-136 0-266-54-362-150s-150-226-150-362c0-136 54-266 150-362s226-150 362-150c0 0 0 0 0 0v0c282 0 512 230 512 512 0 136-54 266-150 362s-226 150-362 150zM172 788c32 30 68 58 106 78l182-318c-10-6-20-12-28-20s-14-18-18-28l-314 194c20 34 44 66 72 94zM512 368c-22 0-42 8-56 24-32 30-32 82 0 112 14 16 34 24 56 24s42-8 56-24c32-30 32-82 0-112-14-16-34-24-56-24zM512-32v0c0 0 0 0 0 0-128 0-248 50-340 140-90 92-140 212-140 340 0 78 18 152 52 218l318-196c-6-36 4-74 30-102 22-20 50-32 80-32 8 0 14 0 22 2l196-318c-66-32-138-52-218-52zM758 36l-194 314c10 4 20 10 28 18s14 18 18 28l314-194c-40-68-98-126-166-166zM940 230l-318 196c6 36-4 74-30 102-22 20-50 32-80 32-8 0-14 0-22-2l-184 324c64 30 134 46 206 46 128 0 248-50 340-140 90-92 140-212 140-340 0-78-20-152-52-218z" />
<glyph unicode="&#x82;" glyph-name="uni82" d="M548 332c-44-44-124-60-168-16-22 20-34 52-34 84s12 64 34 84l448 448-24 24-448-448c-26-28-42-66-42-108 0-36 12-70 32-96l-222-222c-12 10-28 14-44 14-44 0-80-36-80-80s36-80 80-80c44 0 80 36 80 80 0 16-4 32-14 44l222 222c24-18 52-24 80-24 44 0 92 20 124 50l448 448-24 24zM80-32c-26 0-48 22-48 48s22 48 48 48c26 0 48-22 48-48s-22-48-48-48z" />
<glyph unicode="&#x83;" glyph-name="uni83" d="M500 656l-176-228 12-28h352l12 28-176 228zM368 432l144 182 144-182zM352 336h320v-32h-320zM512 960c-136 0-266-54-362-150s-150-226-150-362c0-136 54-266 150-362s226-150 362-150c136 0 266 54 362 150s150 226 150 362c0 136-54 266-150 362s-226 150-362 150zM852 108c-92-90-212-140-340-140s-248 50-340 140c-90 92-140 212-140 340s50 248 140 340c92 90 212 140 340 140s248-50 340-140c90-92 140-212 140-340s-50-248-140-340z" />
<glyph unicode="&#x84;" glyph-name="uni84" d="M496 624v-352l28-12 228 176v24l-228 176zM528 592l182-144-182-144zM176 624v-352l28-12 228 176v24l-228 176zM208 592l182-144-182-144zM816 592h32v-288h-32zM512 960c-136 0-266-54-362-150s-150-226-150-362c0-136 54-266 150-362s226-150 362-150c136 0 266 54 362 150s150 226 150 362c0 136-54 266-150 362s-226 150-362 150zM852 108c-92-90-212-140-340-140s-248 50-340 140c-90 92-140 212-140 340s50 248 140 340c92 90 212 140 340 140s248-50 340-140c90-92 140-212 140-340s-50-248-140-340z" />
<glyph unicode="&#x85;" glyph-name="uni85" d="M560 624v-352l28-12 228 176v24l-228 176zM592 592l182-144-182-144zM240 624v-352l28-12 228 176v24l-228 176zM272 592l182-144-182-144zM512 960c-136 0-266-54-362-150s-150-226-150-362c0-136 54-266 150-362s226-150 362-150c136 0 266 54 362 150s150 226 150 362c0 136-54 266-150 362s-226 150-362 150zM852 108c-92-90-212-140-340-140s-248 50-340 140c-90 92-140 212-140 340s50 248 140 340c92 90 212 140 340 140s248-50 340-140c90-92 140-212 140-340s-50-248-140-340z" />
<glyph unicode="&#x86;" glyph-name="uni86" d="M848 448h-16v80c0 2-4 272-320 272s-320-270-320-272v-80h-16c-98 0-176-78-176-176s78-176 176-176h48v432c0 10 4 240 288 240s288-230 288-240v-432h48c98 0 176 78 176 176s-78 176-176 176zM192 128h-16c-80 0-144 64-144 144s64 144 144 144h16zM848 128h-16v288h16c80 0 144-64 144-144s-64-144-144-144z" />
<glyph unicode="&#x87;" glyph-name="uni87" d="M240-64h544v1024h-544zM272-32v400h480v-400zM272 400v464h480v-464zM752 928v-32h-480v32zM504 336c-92 0-168-76-168-168s76-168 168-168c92 0 168 76 168 168s-76 168-168 168zM504 32c-74 0-136 62-136 136s62 136 136 136c74 0 136-62 136-136s-62-136-136-136zM504 224c-30 0-56-26-56-56s26-56 56-56c30 0 56 26 56 56s-26 56-56 56zM504 144c-14 0-24 10-24 24s10 24 24 24c14 0 24-10 24-24s-10-24-24-24z" />
<glyph unicode="&#x88;" glyph-name="uni88" d="M176-64h672v1024h-672zM208 928h608v-960h-608zM512 496c-114 0-208-94-208-208s94-208 208-208c114 0 208 94 208 208s-94 208-208 208zM512 112c-98 0-176 78-176 176s78 176 176 176c98 0 176-78 176-176s-78-176-176-176zM512 592c62 0 112 50 112 112s-50 112-112 112c-62 0-112-50-112-112s50-112 112-112zM512 784c44 0 80-36 80-80s-36-80-80-80c-44 0-80 36-80 80s36 80 80 80zM512 344c-30 0-56-26-56-56s26-56 56-56c30 0 56 26 56 56s-26 56-56 56zM512 264c-14 0-24 10-24 24s10 24 24 24c14 0 24-10 24-24s-10-24-24-24z" />
<glyph unicode="&#x89;" glyph-name="uni89" d="M720 960c-132 0-240-108-240-240 0-26 4-52 12-76l-418-420 64-64-64-64 160-160h92l346 346 58-58-102-100 24-24 122 124-102 102-358-358h-68l-128 128 42 42 64-64 420 418c24-8 50-12 76-12 132 0 240 108 240 240s-108 240-240 240zM118 224l266 266 106-106-266-266zM512 406l-106 106 100 100c24-46 60-82 106-106zM720 512c-114 0-208 94-208 208s94 208 208 208c114 0 208-94 208-208s-94-208-208-208z" />
<glyph unicode="&#x8a;" glyph-name="uni8A" d="M272 544h-32c0-132 124-262 256-272v-304h-224v-32h480v32h-224v304c132 10 256 140 256 272h-32c0-118-122-240-240-240s-240 122-240 240zM656 528v288c0 80-64 144-144 144s-144-64-144-144v-288c0-80 64-144 144-144s144 64 144 144zM400 528v48h64v32h-64v128h64v32h-64v48c0 62 50 112 112 112s112-50 112-112v-48h-64v-32h64v-128h-64v-32h64v-48c0-62-50-112-112-112s-112 50-112 112z" />
<glyph unicode="&#x8b;" glyph-name="uni8B" d="M0-64h1024v1024h-1024zM32 928h960v-960h-960zM272 800h-32v-48h-80v-32h80v-624h32v624h80v32h-80zM784 800h-32v-624h-80v-32h80v-48h32v48h80v32h-80zM528 800h-32v-336h-80v-32h80v-336h32v336h80v32h-80z" />
<glyph unicode="&#x8c;" glyph-name="uni8C" d="M560-70v1036l-310-310h-202v-416h202zM80 624h182l266 266v-884l-266 266h-182zM948 604l-132-134-132 134-24-24 134-132-134-132 24-24 132 134 132-134 24 24-134 132 134 132z" />
<glyph unicode="&#x8d;" glyph-name="uni8D" d="M736 320c-80 0-144-64-144-144s64-144 144-144c80 0 144 64 144 144v788l-480-104v-690c-26 34-66 54-112 54-80 0-144-64-144-144s64-144 144-144c80 0 144 64 144 144v500l416 88v-402c-26 34-66 54-112 54zM288-32c-62 0-112 50-112 112s50 112 112 112c62 0 112-50 112-112s-50-112-112-112zM432 612v224l416 88v-224zM736 64c-62 0-112 50-112 112s50 112 112 112c62 0 112-50 112-112s-50-112-112-112z" />
<glyph unicode="&#x8e;" glyph-name="uni8E" d="M496 80v532l320 96v258l-352-106v-690c-26 34-66 54-112 54-80 0-144-64-144-144s64-144 144-144c80 0 144 64 144 144zM496 836l288 86v-190l-288-86zM240 80c0 62 50 112 112 112s112-50 112-112c0-62-50-112-112-112s-112 50-112 112z" />
<glyph unicode="&#x8f;" glyph-name="uni8F" d="M384 592h32v-288h-32zM592 592h32v-288h-32zM512 960c-136 0-266-54-362-150s-150-226-150-362c0-136 54-266 150-362s226-150 362-150c136 0 266 54 362 150s150 226 150 362c0 136-54 266-150 362s-226 150-362 150zM852 108c-92-90-212-140-340-140s-248 50-340 140c-90 92-140 212-140 340s50 248 140 340c92 90 212 140 340 140s248-50 340-140c90-92 140-212 140-340s-50-248-140-340z" />
<glyph unicode="&#x90;" glyph-name="uni90" d="M416 624v-352l28-12 228 176v24l-228 176zM448 592l182-144-182-144zM512 960c-136 0-266-54-362-150s-150-226-150-362c0-136 54-266 150-362s226-150 362-150c136 0 266 54 362 150s150 226 150 362c0 136-54 266-150 362s-226 150-362 150zM852 108c-92-90-212-140-340-140s-248 50-340 140c-90 92-140 212-140 340s50 248 140 340c92 90 212 140 340 140s248-50 340-140c90-92 140-212 140-340s-50-248-140-340z" />
<glyph unicode="&#x91;" glyph-name="uni91" d="M672 170c-26 34-66 54-112 54-80 0-144-64-144-144s64-144 144-144c80 0 144 64 144 144v532l320 96v258l-352-106zM560-32c-62 0-112 50-112 112s50 112 112 112c62 0 112-50 112-112s-50-112-112-112zM704 836l288 86v-190l-288-86zM64 720h544v-32h-544zM64 560h544v-32h-544zM64 400h544v-32h-544z" />
<glyph unicode="&#x92;" glyph-name="uni92" d="M280 160c102 0 184 82 184 184s-82 184-184 184c-102 0-184-82-184-184s82-184 184-184zM146 272h62v-62c-26 14-48 36-62 62zM240 198v74h80v-74c-12-4-26-6-40-6s-28 2-40 6zM240 304v80h80v-80zM352 210v62h62c-14-26-36-48-62-62zM426 304h-74v80h74c4-12 6-26 6-40s-2-28-6-40zM414 416h-62v62c26-14 48-36 62-62zM320 490v-74h-80v74c12 4 26 6 40 6s28-2 40-6zM208 478v-62h-62c14 26 36 48 62 62zM134 384h74v-80h-74c-4 12-6 26-6 40s2 28 6 40zM928 416h-400v-272h400zM896 176h-336v208h336zM928 544h-112v-96h112zM896 480h-48v32h48zM784 544h-112v-96h112zM752 480h-48v32h48zM640 544h-112v-96h112zM608 480h-48v32h48zM960 848h-896v-208h-64v-592h1024v592h-64zM928 816v-32h-832v32zM96 752h832v-112h-832zM992 80h-960v528h960z" />
<glyph unicode="&#x93;" glyph-name="uni93" d="M320 80c124 0 224 100 224 224s-100 224-224 224c-124 0-224-100-224-224s100-224 224-224zM154 208h70v-70c-30 16-54 40-70 70zM256 124v84h128v-84c-20-8-42-12-64-12s-44 4-64 12zM256 240v128h128v-128zM416 138v70h70c-16-30-40-54-70-70zM500 240h-84v128h84c8-20 12-42 12-64s-4-44-12-64zM486 400h-70v70c30-16 54-40 70-70zM384 484v-84h-128v84c20 8 42 12 64 12s44-4 64-12zM224 470v-70h-70c16 30 40 54 70 70zM140 368h84v-128h-84c-8 20-12 42-12 64s4 44 12 64zM784 528h-112v-96h112zM752 464h-48v32h48zM928 528h-112v-96h112zM896 464h-48v32h48zM832 272c-52 0-96-44-96-96s44-96 96-96c52 0 96 44 96 96s-44 96-96 96zM832 112c-36 0-64 28-64 64 0 30 20 54 48 62v-46h32v46c28-8 48-32 48-62 0-36-28-64-64-64zM160 688h-48v4l740 188-8 32-764-196v-28h-48v-64h-32v-640h1024v640h-864zM64 656h64v-32h-64zM992 16h-960v576h960z" />
<glyph unicode="&#x94;" glyph-name="uni94" d="M512 960c-136 0-266-54-362-150s-150-226-150-362c0-136 54-266 150-362s226-150 362-150c0 0 0 0 0 0v0c282 0 512 230 512 512 0 136-54 266-150 362s-226 150-362 150zM512-32v0c0 0 0 0 0 0-128 0-248 50-340 140-90 92-140 212-140 340s50 248 140 340c92 90 212 140 340 140s248-50 340-140c90-92 140-212 140-340 0-264-208-480-480-480zM512 592c-80 0-144-64-144-144s64-144 144-144c80 0 144 64 144 144s-64 144-144 144zM512 336c-62 0-112 50-112 112s50 112 112 112c62 0 112-50 112-112s-50-112-112-112zM512 176v32c-132 0-240 108-240 240h-32c0-150 122-272 272-272zM512 720v-32c132 0 240-108 240-240h32c0 150-122 272-272 272zM160 448h-32c0-212 176-384 384-384v32c-192 0-352 158-352 352zM512 832v-32c194 0 352-158 352-352h32c0 212-172 384-384 384z" />
<glyph unicode="&#x95;" glyph-name="uni95" d="M0-64h1024v1024h-1024zM32 928h960v-960h-960zM832 704h64v-454l-88-44-8-14v-64l24-14 96 48 8 14v688h-96zM896 186l-64-32v28l64 32zM864 832h32v-96h-32zM440 896c-208 0-376-168-376-376s168-376 376-376c208 0 376 168 376 376s-168 376-376 376zM440 176c-190 0-344 154-344 344s154 344 344 344c190 0 344-154 344-344s-154-344-344-344zM440 632c-62 0-112-50-112-112s50-112 112-112c62 0 112 50 112 112s-50 112-112 112zM440 440c-44 0-80 36-80 80s36 80 80 80c44 0 80-36 80-80s-36-80-80-80zM64 0h128v80h-128zM96 48h64v-16h-64zM224 0h128v80h-128zM256 48h64v-16h-64z" />
<glyph unicode="&#x96;" glyph-name="uni96" d="M880 358l-84 86-24-26 112-114h24l112 114-24 24-84-84v362h-784v-32h752zM112 538v-362h784v32h-752v330l84-86 24 26-112 114h-24l-112-114 24-24z" />
<glyph unicode="&#x97;" glyph-name="uni97" d="M208 460v-24l228-176 28 12v352l-28 12zM432 304l-182 144 182 144zM528 460v-24l228-176 28 12v352l-28 12zM752 304l-182 144 182 144zM512 960c-136 0-266-54-362-150s-150-226-150-362c0-136 54-266 150-362s226-150 362-150c136 0 266 54 362 150s150 226 150 362c0 136-54 266-150 362s-226 150-362 150zM852 108c-92-90-212-140-340-140s-248 50-340 140c-90 92-140 212-140 340s50 248 140 340c92 90 212 140 340 140s248-50 340-140c90-92 140-212 140-340s-50-248-140-340z" />
<glyph unicode="&#x98;" glyph-name="uni98" d="M388 532l24 24-166 164h-246v-32h234zM884 804l86-84h-224l-512-512h-234v-32h246l512 512h212l-86-84 26-24 114 112v24l-114 112zM884 292l86-84h-212l-154 156-24-24 166-164h224l-86-84 26-24 114 112v24l-114 112z" />
<glyph unicode="&#x99;" glyph-name="uni99" d="M352 624l-16-16v-320l16-16h320l16 16v320l-16 16zM656 304h-288v288h288zM512 960c-136 0-266-54-362-150s-150-226-150-362c0-136 54-266 150-362s226-150 362-150c136 0 266 54 362 150s150 226 150 362c0 136-54 266-150 362s-226 150-362 150zM852 108c-92-90-212-140-340-140s-248 50-340 140c-90 92-140 212-140 340s50 248 140 340c92 90 212 140 340 140s248-50 340-140c90-92 140-212 140-340s-50-248-140-340z" />
<glyph unicode="&#x9a;" glyph-name="uni9A" d="M0 96h1024v704h-1024zM134 128l38 128h680l38-128zM32 768h960v-640h-68l-48 160h-728l-48-160h-68zM256 576c-62 0-112-50-112-112s50-112 112-112c62 0 112 50 112 112s-50 112-112 112zM256 384c-44 0-80 36-80 80s36 80 80 80c44 0 80-36 80-80s-36-80-80-80zM768 576c-62 0-112-50-112-112s50-112 112-112c62 0 112 50 112 112s-50 112-112 112zM768 384c-44 0-80 36-80 80s36 80 80 80c44 0 80-36 80-80s-36-80-80-80zM976 736h-912v-96h912zM944 672h-848v32h848zM400 400h224v128h-224zM432 496h160v-64h-160z" />
<glyph unicode="&#x9b;" glyph-name="uni9B" d="M624-70v1036l-310-310h-202v-416h202zM144 624h182l266 266v-884l-266 266h-182zM736 304v-32c98 0 176 78 176 176s-78 176-176 176v-32c80 0 144-64 144-144s-64-144-144-144z" />
<glyph unicode="&#x9c;" glyph-name="uni9C" d="M544-70v1036l-310-310h-202v-416h202zM64 624h182l266 266v-884l-266 266h-182zM656 304v-32c98 0 176 78 176 176s-78 176-176 176v-32c80 0 144-64 144-144s-64-144-144-144zM656 112c186 0 336 150 336 336s-150 336-336 336v-32c168 0 304-136 304-304s-136-304-304-304z" />
<glyph unicode="&#x9d;" glyph-name="uni9D" d="M192 106l134 134h26v32h-16v16h-32v-26l-134-134h-170v-192h192zM160-32h-128v128h128zM832 790l-134-134h-26v-32h16v-16h32v26l134 134h170v192h-192zM864 928h128v-128h-128zM384 656h64v-32h-64zM576 656h64v-32h-64zM480 656h64v-32h-64zM336 624h16v32h-48v-48h32zM304 384h32v-64h-32zM304 576h32v-64h-32zM304 480h32v-64h-32zM384 272h64v-32h-64zM480 272h64v-32h-64zM576 272h64v-32h-64zM688 272h-16v-32h48v48h-32zM688 480h32v-64h-32zM688 384h32v-64h-32zM688 576h32v-64h-32zM400 432h96v-96h32v96h96v32h-96v96h-32v-96h-96z" />
<glyph unicode="&#x9e;" glyph-name="uni9E" d="M512 112c282 0 512 150 512 336s-230 336-512 336c-282 0-512-150-512-336s230-336 512-336zM32 432h464v-288c-248 6-450 132-464 288zM528 144v288h464c-14-156-216-282-464-288zM992 464h-464v288c248-6 450-132 464-288zM496 752v-288h-464c14 156 216 282 464 288z" />
<glyph unicode="&#x9f;" glyph-name="uni9F" d="M766 0l254 448-254 448h-508l-254-448 254-448zM300 32l212 384 212-384zM984 448l-230-404-224 404 224 404zM512 480l-212 384h424zM270 852l224-404-224-404-230 404z" />
<glyph unicode="&#xa0;" glyph-name="uniA0" d="M0 112h1024v672h-1024zM542 448l450 290v-580zM954 144h-884l442 284zM512 468l-442 284h884zM482 448l-450-290v580z" />
<glyph unicode="&#xa1;" glyph-name="uniA1" d="M208 112h608c114 0 208 94 208 208v256c0 114-94 208-208 208h-608c-114 0-208-94-208-208v-256c0-114 94-208 208-208zM208 144c-36 0-72 12-100 32l404 254 404-254c-28-20-64-32-100-32zM992 576v-256c0-48-20-92-50-124l-400 252 400 252c30-32 50-76 50-124zM816 752c36 0 72-12 100-32l-404-254-404 254c28 20 64 32 100 32zM32 576c0 48 20 92 50 124l400-252-400-252c-30 32-50 76-50 124z" />
<glyph unicode="&#xa2;" glyph-name="uniA2" d="M176 126l32-12 78 222h308l78-226 32 12-244 694h-40zM582 368h-286l144 406zM816 960h32v-1024h-32z" />
<glyph unicode="&#xa3;" glyph-name="uniA3" d="M864 778l156 154-24 24-154-156h-650v160h-32v-160h-160v-32h160v-672h672v-160h32v160h160v32h-160zM810 768l-618-618v618zM214 128l618 618v-618z" />
<glyph unicode="&#xa4;" glyph-name="uniA4" d="M864 960h-6l-6-4c0 0-40-42-64-64l-180-182-64 64-86-86 72-72-482-514v-32l-54-54 86-86 54 54h32l514 482 72-72 86 86-64 64 250 250v6c0 80-80 160-160 160zM154 16h-32l-42-42-42 42 42 42v32l472 504 106-106zM752 438l-250 250 42 42 250-250zM752 566l-122 122 182 180c18 20 46 48 58 60 58-4 118-64 122-122z" />
<glyph unicode="&#xa5;" glyph-name="uniA5" d="M146 320h268l66-182 30 12-210 570h-40l-212-570 30-12zM280 680l122-328h-244zM610 320h268l66-182 30 12-210 570h-40l-212-570 30-12zM744 680l122-328h-244zM1024 960h-1024v-1024h1024zM992-32h-960v960h960z" />
<glyph unicode="&#xa6;" glyph-name="uniA6" d="M484 480l76-214 32 12-244 682h-40l-244-682 32-12 76 214zM328 918l146-406h-292zM788 848l-132-378 32-12 34 102h172l34-102 32 12-132 378zM734 592l74 214 74-214zM32 224h576v-32h-576zM640 416h352v-32h-352zM832-64v346l84-86 24 26-112 114h-24l-112-114 24-24 84 84v-346z" />
<glyph unicode="&#xa7;" glyph-name="uniA7" d="M676 464l76-214 32 12-244 682h-40l-244-682 32-12 76 214zM520 902l146-406h-292zM130 188l-114-112v-24l114-112 24 24-84 84h884l-86-84 26-24 114 112v24l-114 112-24-24 84-84h-884l84 84z" />
<glyph unicode="&#xa8;" glyph-name="uniA8" d="M196 784l-132-378 32-12 34 102h172l34-102 32 12-132 378zM142 528l74 214 74-214zM656 406l32-12 34 102h172l34-102 32 12-132 378h-40zM882 528h-148l74 214zM496 864h32v-32h-32zM496 416h32v-64h-32zM496 608h32v-64h-32zM496 704h32v-64h-32zM496 512h32v-64h-32zM496 800h32v-64h-32zM496 320h32v-32h-32zM894-60l114 112v24l-114 112-24-24 84-84h-884l86 84-26 24-114-112v-24l114-112 24 24-84 84h884l-84-84z" />
<glyph unicode="&#xa9;" glyph-name="uniA9" d="M692 960l-132-378 32-12 34 102h172l34-102 32 12-132 378zM638 704l74 214 74-214zM432 528h544v-32h-544zM798 144l34-102 32 12-132 378h-40l-132-378 32-12 34 102zM712 390l74-214h-148zM432 0h544v-32h-544zM292 404l24 26-112 114h-24l-112-114 24-24 84 84v-484l-84 86-24-26 112-114h24l112 114-24 24-84-84v484z" />
<glyph unicode="&#xaa;" glyph-name="uniAA" d="M852 480l76-214 32 12-244 682h-40l-244-682 32-12 76 214zM696 918l146-406h-292zM302 368l34-102 32 12-132 378h-40l-132-378 32-12 34 102zM216 614l74-214h-148zM910-60l114 112v24l-114 112-24-24 84-84h-916l86 84-26 24-114-112v-24l114-112 24 24-84 84h916l-84-84z" />
<glyph unicode="&#xab;" glyph-name="uniAB" d="M324 832l-244-682 32-12 76 214h312l76-214 32 12-244 682zM198 384l146 406 146-406zM772 528l-132-378 32-12 34 102h172l34-102 32 12-132 378zM718 272l74 214 74-214zM0-64h1024v1024h-1024zM32 928h960v-960h-960z" />
<glyph unicode="&#xac;" glyph-name="uniAC" d="M340 832l-244-682 32-12 76 214h312l76-214 32 12-244 682zM214 384l146 406 146-406zM896 208v160c0 38-28 96-104 96-72 0-100-36-100-38l24-20c2 2 22 26 76 26 52 0 72-38 72-64v-32h-64c-44 0-128-20-128-96 0-62 34-96 96-96 44 0 74 14 96 40 6-20 32-40 48-40v32c-16 0-16 26-16 32zM768 176c-28 0-64 6-64 64 0 62 92 64 96 64h64v-32c0-80-52-96-96-96zM0-64h1024v1024h-1024zM32 928h960v-960h-960z" />
<glyph unicode="&#xad;" glyph-name="uniAD" d="M896 368c0 38-28 96-104 96-72 0-100-36-100-38l24-20c2 2 22 26 76 26 52 0 72-38 72-64v-32h-64c-38 0-102-14-122-64h-98l-200 560h-40l-200-560h-44v-32h34l-34-90 32-12 36 102h392l36-102 32 12-34 90h82c0-62 34-96 96-96 44 0 74 14 96 40 6-20 32-40 48-40v32c-16 0-16 26-16 32v32h32v32h-32zM360 790l134-374h-268zM174 272l40 112h292l40-112zM768 176c-28 0-64 6-64 64h156c-12-52-54-64-92-64zM714 272c26 32 82 32 86 32h64v-32zM0-64h1024v1024h-1024zM32 928h960v-960h-960z" />
<glyph unicode="&#xae;" glyph-name="uniAE" d="M160 394l34 102h172l34-102 32 12-132 378h-40l-132-378zM280 742l74-214h-148zM724 784l-132-378 32-12 34 102h172l34-102 32 12-132 378zM670 528l74 214 74-214zM496 864h32v-32h-32zM496 608h32v-64h-32zM496 416h32v-64h-32zM496 512h32v-64h-32zM496 800h32v-64h-32zM496 704h32v-64h-32zM496 320h32v-32h-32zM48 864h32v-32h-32zM48 512h32v-64h-32zM48 800h32v-64h-32zM48 416h32v-64h-32zM48 608h32v-64h-32zM48 704h32v-64h-32zM48 320h32v-32h-32zM944 864h32v-32h-32zM944 608h32v-64h-32zM944 704h32v-64h-32zM944 512h32v-64h-32zM944 800h32v-64h-32zM944 416h32v-64h-32zM944 320h32v-32h-32zM894-60l114 112v24l-114 112-24-24 84-84h-884l86 84-26 24-114-112v-24l114-112 24 24-84 84h884l-84-84z" />
<glyph unicode="&#xaf;" glyph-name="uniAF" d="M214 384h292l86-246 32 12-244 682h-40l-244-682 32-12zM360 790l134-374h-268zM800 336c-44 0-128-20-128-96 0-62 34-96 96-96 44 0 74 14 96 40 6-20 32-40 48-40v32c-16 0-16 26-16 32v160c0 38-28 96-104 96-72 0-100-36-100-38l24-20c2 2 22 26 76 26 52 0 72-38 72-64v-32zM768 176c-28 0-64 6-64 64 0 62 92 64 96 64h64v-32c0-80-52-96-96-96zM1024 960h-1024v-1024h1024zM992-32h-960v960h960zM96 96h832v-32h-832z" />
<glyph unicode="&#xb0;" glyph-name="uniB0" d="M480 106l76 214h312l76-214 32 12-244 682h-40l-244-682zM712 758l146-406h-292zM292 804l24 26-112 114h-24l-112-114 24-24 84 84v-884l-84 86-24-26 112-114h24l112 114-24 24-84-84v884z" />
<glyph unicode="&#xb1;" glyph-name="uniB1" d="M80 416v-288h416v-192h32v192h416v288h-416v64h320v288h-320v192h-32v-192h-320v-288h320v-64zM208 736h608v-224h-608zM912 160h-800v224h800z" />
<glyph unicode="&#xb2;" glyph-name="uniB2" d="M0 960h32v-1024h-32zM960 416h-864v-288h864zM928 160h-800v224h800zM96 768v-288h672v288zM736 512h-608v224h608z" />
<glyph unicode="&#xb3;" glyph-name="uniB3" d="M992 960h32v-1024h-32zM928 416h-864v-288h864zM896 160h-800v224h800zM928 768h-672v-288h672zM896 512h-608v224h608z" />
<glyph unicode="&#xb4;" glyph-name="uniB4" d="M320 880h-128v-864h128v-80h32v80h128v864h-128v80h-32zM448 48h-224v800h224zM544 112h128v-176h32v176h128v672h-128v176h-32v-176h-128zM576 752h224v-608h-224z" />
<glyph unicode="&#xb5;" glyph-name="uniB5" d="M544 960v-1024h32v176h256v672h-256v176zM800 752v-608h-224v608zM192 960v-1024h32v80h256v864h-256v80zM448 848v-800h-224v800z" />
<glyph unicode="&#xb6;" glyph-name="uniB6" d="M480-64v1024h-32v-80h-256v-864h256v-80zM224 48v800h224v-800zM832-64v1024h-32v-176h-256v-672h256v-176zM576 144v608h224v-608z" />
<glyph unicode="&#xb7;" glyph-name="uniB7" d="M480 816h544v-32h-544zM352 656h496v-32h-496zM352 496h672v-32h-672zM352 336h544v-32h-544zM352 176h672v-32h-672zM352 16h576v-32h-576zM244 700l26-24 114 112v24l-114 112-24-24 84-84h-330v-32h330z" />
<glyph unicode="&#xb8;" glyph-name="uniB8" d="M480 864h544v-32h-544zM480 704h352v-32h-352zM480 544h544v-32h-544zM480 384h400v-32h-400zM480 224h544v-32h-544zM480 64h432v-32h-432zM384 960h32v-1024h-32zM180 348l26-24 114 112v24l-114 112-24-24 84-84h-266v-32h266z" />
<glyph unicode="&#xb9;" glyph-name="uniB9" d="M0 864h544v-32h-544zM192 704h352v-32h-352zM0 544h544v-32h-544zM144 384h400v-32h-400zM0 224h544v-32h-544zM112 64h432v-32h-432zM608 960h32v-1024h-32zM844 548l-26 24-114-112v-24l114-112 24 24-84 84h266v32h-266z" />
<glyph unicode="&#xba;" glyph-name="uniBA" d="M512 880c-282 0-512-148-512-328 0-126 112-236 278-292-32-14-54-38-54-68 0-44 50-80 112-80 24 0 44 4 62 14 8-8 18-20 18-46 0-30-14-32-16-32v-32c16 0 48 14 48 64 0 32-12 52-22 64 14 12 22 30 22 48 0 12-4 24-12 36 26-2 50-4 76-4 282 0 512 148 512 328s-230 328-512 328zM256 192c0 26 36 48 80 48s80-22 80-48c0-26-36-48-80-48s-80 22-80 48zM512 256c-264 0-480 132-480 296s216 296 480 296c264 0 480-132 480-296s-216-296-480-296z" />
<glyph unicode="&#xbb;" glyph-name="uniBB" d="M512 770l-522-226 250-100-250-108 522-210 522 210-250 108 250 100zM950 336l-438-174-438 174 208 90 230-92 230 92zM742 462v0l-230-92-230 92-208 82 438 190 438-190-208-82z" />
<glyph unicode="&#xbc;" glyph-name="uniBC" d="M512 866l-522-226 250-100-250-108 250-100-250-108 522-210 522 210-250 108 250 100-250 108 250 100zM950 224l-438-174-438 174 208 90 230-92 230 92zM950 432l-208-82-230-92-230 92-208 82 208 90 230-92 230 92zM742 558v0l-230-92-230 92-208 82 438 190 438-190-208-82z" />
<glyph unicode="&#xbd;" glyph-name="uniBD" d="M0-64h1024v1024h-1024zM32 928h960v-960h-960z" />
<glyph unicode="&#xbe;" glyph-name="uniBE" d="M496 960h-496v-1024h1024v1024zM496-32h-464v960h464zM992 928v-960h-464v960z" />
<glyph unicode="&#xbf;" glyph-name="uniBF" d="M672 960h-672v-1024h1024v1024zM320-32h-288v960h288zM672-32h-320v960h320zM992 928v-960h-288v960z" />
<glyph unicode="&#xc0;" glyph-name="uniC0" d="M496 960h-496v-1024h1024v1024zM32 928h464v-464h-464zM496-32h-464v464h464zM992-32h-464v464h464zM992 928v-464h-464v464z" />
<glyph unicode="&#xc1;" glyph-name="uniC1" d="M736 960h-736v-1024h1024v1024zM240-32h-208v960h208zM496-32h-224v960h224zM736-32h-208v960h208zM992 928v-960h-224v960z" />
<glyph unicode="&#xc2;" glyph-name="uniC2" d="M0 720v-784h1024v1024h-1024zM992-32h-960v224h960zM992 224h-960v208h960zM992 464h-960v224h960zM32 928h960v-208h-960z" />
<glyph unicode="&#xc3;" glyph-name="uniC3" d="M496 960h-496v-1024h1024v1024zM32 928h464v-224h-464zM32 672h464v-208h-464zM32 432h464v-224h-464zM496-32h-464v208h464zM992-32h-464v208h464zM992 208h-464v224h464zM992 464h-464v208h464zM992 928v-224h-464v224z" />
<glyph unicode="&#xc4;" glyph-name="uniC4" d="M0 736v-800h1024v1024h-1024zM992-32h-960v736h960zM32 928h960v-192h-960z" />
<glyph unicode="&#xc5;" glyph-name="uniC5" d="M0 736v-800h1024v1024h-1024zM496-32h-464v736h464zM992-32h-464v736h464zM32 928h960v-192h-960z" />
<glyph unicode="&#xc6;" glyph-name="uniC6" d="M0 736v-800h1024v1024h-1024zM320-32h-288v736h288zM672-32h-320v736h320zM992-32h-288v736h288zM32 928h960v-192h-960z" />
<glyph unicode="&#xc7;" glyph-name="uniC7" d="M0 736v-800h1024v1024h-1024zM32 704h464v-352h-464zM496-32h-464v352h464zM992-32h-464v352h464zM992 352h-464v352h464zM32 928h960v-192h-960z" />
<glyph unicode="&#xc8;" glyph-name="uniC8" d="M0 736v-800h1024v1024h-1024zM240-32h-208v736h208zM496-32h-224v736h224zM736-32h-208v736h208zM992-32h-224v736h224zM32 928h960v-192h-960z" />
<glyph unicode="&#xc9;" glyph-name="uniC9" d="M0 736v-800h1024v1024h-1024zM32 704h304v-736h-304zM368-32v368h624v-368zM992 368h-624v336h624zM32 928h960v-192h-960z" />
<glyph unicode="&#xca;" glyph-name="uniCA" d="M0 736v-800h1024v1024h-1024zM656 368h-624v336h624zM32 336h624v-368h-624zM992-32h-304v736h304zM32 928h960v-192h-960z" />
<glyph unicode="&#xcb;" glyph-name="uniCB" d="M0 736v-800h1024v1024h-1024zM496-32h-464v736h464zM736-32h-208v736h208zM992-32h-224v736h224zM32 928h960v-192h-960z" />
<glyph unicode="&#xcc;" glyph-name="uniCC" d="M0 736v-800h1024v1024h-1024zM496-32h-464v736h464zM736-32h-208v736h208zM992-32h-224v736h224zM32 928h960v-192h-960z" />
<glyph unicode="&#xcd;" glyph-name="uniCD" d="M0 736v-800h1024v1024h-1024zM32 704h304v-736h-304zM992-32h-624v736h624zM32 928h960v-192h-960z" />
<glyph unicode="&#xce;" glyph-name="uniCE" d="M0 736v-800h1024v1024h-1024zM32 704h624v-736h-624zM992-32h-304v736h304zM32 928h960v-192h-960z" />
<glyph unicode="&#xcf;" glyph-name="uniCF" d="M320 960h-320v-1024h1024v1024zM320-32h-288v960h288zM992 928v-960h-640v960z" />
<glyph unicode="&#xd0;" glyph-name="uniD0" d="M672 960h-672v-1024h1024v1024zM672-32h-640v960h640zM992 928v-960h-288v960z" />
<glyph unicode="&#xd1;" glyph-name="uniD1" d="M160 960v-672c0-194 158-352 352-352s352 158 352 352v672h-240v-672c0-62-50-112-112-112s-112 50-112 112v672zM368 928v-112h-176v112zM832 928v-112h-176v112zM512 144c80 0 144 64 144 144v496h176v-496c0-176-144-320-320-320s-320 144-320 320v496h176v-496c0-80 64-144 144-144z" />
<glyph unicode="&#xd2;" glyph-name="uniD2" d="M528 800v64h-32v-64h-326l-170-170v-534h496v-64h32v64h496v534l-170 170zM864 746l106-106h-106zM160 746v-106h-106zM32 128v480h160v160h304v-640zM528 128v640h304v-160h160v-480z" />
<glyph unicode="&#xd3;" glyph-name="uniD3" d="M340 428l-60-62c-16-4-72-22-130-66-104-78-148-334-150-346l-2-18h18c264 0 400 250 414 278l62 64 538 652-36 36zM352 394l106-106-42-42-106 106zM36-32c12 62 56 248 134 308 46 34 94 52 114 58l112-114c-24-46-144-240-360-252zM478 312l-102 102 588 486z" />
<glyph unicode="&#xd4;" glyph-name="uniD4" d="M432 960c-52 0-96-44-96-96v-202l-304-298v-24l404-404h24l412 414 106 16 10 32-448 450h-12v16c0 52-44 96-96 96zM368 864c0 36 28 64 64 64s64-28 64-64v-42l-128-128zM942 396l-80-12-10-4-404-406-378 378 426 426v-250h32v282z" />
<glyph unicode="&#xd5;" glyph-name="uniD5" d="M992 560v272h-96v128h-800v-128h-64v-32h64v-144h800v144h64v-208h-464v-288h-64v-368h160v368h-64v256zM864 688h-736v240h736zM560 272v-304h-96v304z" />
<glyph unicode="&#xd6;" glyph-name="uniD6" d="M832-64v1024h-368c-2 0-272-4-272-272s270-272 272-272h176v-480h32v992h128v-992zM464 448c-10 0-240 4-240 240s230 240 240 240h176v-480z" />
<glyph unicode="&#xd7;" glyph-name="uniD7" d="M0 864h1024v-32h-1024zM0 704h736v-32h-736zM0 544h1024v-32h-1024zM0 384h800v-32h-800zM0 224h1024v-32h-1024zM0 64h864v-32h-864z" />
<glyph unicode="&#xd8;" glyph-name="uniD8" d="M0 864h1024v-32h-1024zM288 704h736v-32h-736zM0 544h1024v-32h-1024zM224 384h800v-32h-800zM0 224h1024v-32h-1024zM160 64h864v-32h-864z" />
<glyph unicode="&#xd9;" glyph-name="uniD9" d="M0 864h1024v-32h-1024zM144 704h736v-32h-736zM0 544h1024v-32h-1024zM112 384h800v-32h-800zM0 224h1024v-32h-1024zM80 64h864v-32h-864z" />
<glyph unicode="&#xda;" glyph-name="uniDA" d="M0 864h1024v-32h-1024zM0 704h1024v-32h-1024zM0 544h1024v-32h-1024zM0 384h1024v-32h-1024zM0 224h1024v-32h-1024zM0 64h1024v-32h-1024z" />
<glyph unicode="&#xdb;" glyph-name="uniDB" d="M0 864h1024v-32h-1024zM0 704h1024v-32h-1024zM0 544h1024v-32h-1024zM0 384h1024v-32h-1024zM0 224h1024v-32h-1024zM160 64h704v-32h-704z" />
<glyph unicode="&#xdc;" glyph-name="uniDC" d="M0 864h1024v-32h-1024zM0 704h1024v-32h-1024zM0 544h1024v-32h-1024zM0 384h1024v-32h-1024zM0 224h1024v-32h-1024zM0 64h704v-32h-704z" />
<glyph unicode="&#xdd;" glyph-name="uniDD" d="M0 864h1024v-32h-1024zM0 704h1024v-32h-1024zM0 544h1024v-32h-1024zM0 384h1024v-32h-1024zM0 224h1024v-32h-1024zM320 64h704v-32h-704z" />
<glyph unicode="&#xde;" glyph-name="uniDE" d="M352 880h672v-32h-672zM352 720h544v-32h-544zM352 560h672v-32h-672zM352 400h576v-32h-576zM912 208h16v-16h32v48h-48zM624 240h64v-32h-64zM432 240h64v-32h-64zM720 240h64v-32h-64zM528 240h64v-32h-64zM816 240h64v-32h-64zM384 208h16v32h-48v-48h32zM352 160h32v-48h-32zM352 48h48v32h-16v16h-32zM816 80h64v-32h-64zM720 80h64v-32h-64zM624 80h64v-32h-64zM528 80h64v-32h-64zM432 80h64v-32h-64zM928 80h-16v-32h48v48h-32zM928 160h32v-48h-32zM148 44l26-24 114 112v24l-114 112-24-24 84-84h-234v-32h234z" />
<glyph unicode="&#xdf;" glyph-name="uniDF" d="M352 512h672v-32h-672zM352 352h544v-32h-544zM352 192h672v-32h-672zM352 32h576v-32h-576zM960 832h-48v-32h16v-16h32zM720 832h64v-32h-64zM624 832h64v-32h-64zM816 832h64v-32h-64zM528 832h64v-32h-64zM432 832h64v-32h-64zM384 800h16v32h-48v-48h32zM352 752h32v-48h-32zM352 640h48v32h-16v16h-32zM432 672h64v-32h-64zM528 672h64v-32h-64zM624 672h64v-32h-64zM816 672h64v-32h-64zM720 672h64v-32h-64zM912 640h48v48h-32v-16h-16zM928 752h32v-48h-32zM148 636l26-24 114 112v24l-114 112-24-24 84-84h-234v-32h234z" />
<glyph unicode="&#xe0;" glyph-name="uniE0" d="M672 960h-672v-672h352v-352h672v672h-352zM32 928h608v-320h-288v-288h-320zM640 576v-256h-256v256zM992-32h-608v320h288v288h320z" />
<glyph unicode="&#xe1;" glyph-name="uniE1" d="M672 576h48v32h-48v48h-32v-48h-288v-288h-48v-32h48v-48h32v48h288zM384 320v256h256v-256zM272 960h64v-32h-64zM32 928h16v32h-48v-48h32zM368 960h64v-32h-64zM112 320h64v-32h-64zM176 960h64v-32h-64zM208 320h64v-32h-64zM0 688h32v-64h-32zM80 960h64v-32h-64zM0 880h32v-64h-32zM16 320h64v-32h-64zM0 784h32v-64h-32zM0 592h32v-64h-32zM560 960h64v-32h-64zM640 752h32v-64h-32zM464 960h64v-32h-64zM0 400h32v-64h-32zM640 848h32v-64h-32zM0 496h32v-64h-32zM640 944h32v-64h-32zM1024-16h-32v-16h-16v-32h48zM992 80h32v-64h-32zM944 608h64v-32h-64zM992 368h32v-64h-32zM992 272h32v-64h-32zM992 176h32v-64h-32zM496-32h64v-32h-64zM592-32h64v-32h-64zM400-32h64v-32h-64zM992 464h32v-64h-32zM352 208h32v-64h-32zM688-32h64v-32h-64zM352 16h32v-64h-32zM880-32h64v-32h-64zM992 560h32v-64h-32zM784-32h64v-32h-64zM752 608h64v-32h-64zM848 608h64v-32h-64zM352 112h32v-64h-32z" />
<glyph unicode="&#xe2;" glyph-name="uniE2" d="M800 608h64v-32h-64zM896 608h48v-32h-48zM720 608h48v-32h-48zM1024 608h-48v-32h16v-16h32zM992 80h32v-64h-32zM992 160h32v-48h-32zM992 352h32v-64h-32zM992 432h32v-48h-32zM992 528h32v-64h-32zM992 256h32v-64h-32zM992-32h-16v-32h48v48h-32zM432-32h64v-32h-64zM528-32h48v-32h-48zM608-32h64v-32h-64zM880-32h64v-32h-64zM704-32h64v-32h-64zM800-32h48v-32h-48zM352-64h48v32h-16v16h-32zM352 160h32v-64h-32zM352 64h32v-48h-32zM352 240h32v-48h-32zM352 272h32v304h304v32h-16v352h-672v-672h352zM32 928h608v-320h-288v-288h-320z" />
<glyph unicode="&#xe3;" glyph-name="uniE3" d="M640 432h32v-64h-32zM640 528h32v-64h-32zM640 320h-16v-32h48v48h-32zM528 320h64v-32h-64zM432 320h64v-32h-64zM672 960h-672v-672h352v-352h672v672h-352zM992-32h-608v320h16v32h-16v16h-32v-16h-320v608h608v-320h-16v-32h16v-16h32v16h320zM352 528h32v-64h-32zM352 432h32v-64h-32zM352 560h32v16h16v32h-48zM528 608h64v-32h-64zM432 608h64v-32h-64z" />
<glyph unicode="&#xe4;" glyph-name="uniE4" d="M672 32h64v192h-64v44l114 212-274 498-274-498 114-212v-44h-64v-192h64v-96h320zM512 546c26 0 48-22 48-48s-22-48-48-48c-26 0-48 22-48 48s22 48 48 48zM274 480l222 402v-306c-36-8-64-40-64-78 0-44 36-80 80-80s80 36 80 80c0 38-28 70-64 78v306l222-402-110-204v-52h-256v52zM320 64v128h384v-128zM640-32h-256v64h256z" />
<glyph unicode="&#xe5;" glyph-name="uniE5" d="M352 268v-44h-64v-192h64v-96h320v96h64v192h-64v44l114 212-274 498-274-498zM640-32h-256v64h256zM704 64h-384v128h384zM750 480l-110-204v-52h-256v52l-110 204 238 430zM496 368h32v96h96v32h-96v96h-32v-96h-96v-32h96z" />
<glyph unicode="&#xe6;" glyph-name="uniE6" d="M352 268v-44h-64v-192h64v-96h320v96h64v192h-64v44l114 212-274 498-274-498zM640-32h-256v64h256zM704 64h-384v128h384zM750 480l-110-204v-52h-256v52l-110 204 238 430zM400 496h224v-32h-224z" />
<glyph unicode="&#xe7;" glyph-name="uniE7" d="M148 268l-2-2-150-302 32-32 302 150 700 702-182 182zM182 256l522 522 138-138-522-522zM726 800l42 42 138-138-42-42zM164 228l128-128-122-60-12 54-54 12zM88 78l42-12 12-42-106-52zM928 726l-138 138 58 58 138-138z" />
<glyph unicode="&#xe8;" glyph-name="uniE8" d="M960 980l-324-290-584 98 276-596c-60-4-104-38-104-80 0-44 50-80 112-80 24 0 44 4 62 14 8-8 18-20 18-46 0-30-14-32-16-32v-32c16 0 48 14 48 64 0 32-12 52-22 64 14 12 22 30 22 48 0 8-2 16-4 24l516 156zM256 112c0 26 36 48 80 48s80-22 80-48c0-26-36-48-80-48s-80 22-80 48zM928 316l-504-154c-16 14-36 24-60 28l-256 558 536-94 284 254z" />
<glyph unicode="&#xe9;" glyph-name="uniE9" d="M0 726v-716l358 358zM32 650l282-282-282-282zM1024 80h-26l-2 2-2-2h-2v-2l-18-18 50-50zM992 352h32v-64h-32zM992 256h32v-48h-32zM992 448h32v-64h-32zM992 176h32v-64h-32zM992 528h32v-48h-32zM992 624h32v-64h-32zM1024 726l-50-50 18-18v-2h2l2-2 2 2h26zM806 464l-22 22 42 42 22-22zM934 590l-24 24 42 42 24-24zM744 400l-24 24 42 42 24-24zM890 592l22-22-42-42-22 22zM666 368l34-34 22 22-12 12 12 12-22 22zM848 186l22 22 42-42-22-22zM910 122l24 24 42-42-24-24zM806 272l42-42-22-22-42 42zM744 336l42-42-24-24-42 42zM496 16h32v-32h-32zM496 304h32v-64h-32zM496 496h32v-64h-32zM496 400h32v-64h-32zM496 208h32v-64h-32zM496 112h32v-64h-32zM496 688h32v-64h-32zM496 592h32v-64h-32zM496 752h32v-32h-32zM896 798c-92 104-226 162-384 162-174 0-322-70-414-198l28-20c84 120 222 186 386 186 152 0 282-56 368-160h-144v-32h176l16 16v176h-32z" />
<glyph unicode="&#xea;" glyph-name="uniEA" d="M416 602l358 358h-716zM416 646l-282 282h564zM128-38l2 2-2 2v2h-2l-18 18-50-50h70zM336-32h64v-32h-64zM528-32h48v-32h-48zM608-32h64v-32h-64zM256-32h48v-32h-48zM160-32h64v-32h-64zM432-32h64v-32h-64zM706-32h-2v-2l-2-2 2-2v-26h70l-50 50zM618 48l-42 42 22 22 42-42zM680-16l-42 42 24 24 42-42zM490 174l-42 42 24 24 42-42zM554 112l-42 42 22 22 42-42zM404 238l12 12 12-12 22 22-34 34-34-34zM342 174l-24 24 42 42 24-24zM256 90l-42-42-22 22 42 42zM170 50l24-24-42-42-24 24zM320 154l-42-42-22 22 42 42zM32 472h32v-32h-32zM96 464h64v-32h-64zM384 464h64v-32h-64zM480 464h64v-32h-64zM576 464h64v-32h-64zM288 464h64v-32h-64zM672 464h64v-32h-64zM192 464h64v-32h-64zM768 472h32v-32h-32zM826 862l-20-28c120-84 186-222 186-386 0-152-56-282-160-368v144h-32v-176l16-16h176v32h-130c104 92 162 226 162 384 0 174-70 322-198 414z" />
<glyph unicode="&#xeb;" glyph-name="uniEB" d="M192 106l134 134h26v32h-16v16h-32v-26l-134-134h-170v-192h192zM160-32h-128v128h128zM832 790l-134-134h-26v-32h16v-16h32v26l134 134h170v192h-192zM864 928h128v-128h-128zM576 656h64v-32h-64zM384 656h64v-32h-64zM480 656h64v-32h-64zM336 624h16v32h-48v-48h32zM304 576h32v-64h-32zM304 480h32v-64h-32zM304 384h32v-64h-32zM480 272h64v-32h-64zM384 272h64v-32h-64zM576 272h64v-32h-64zM688 272h-16v-32h48v48h-32zM688 384h32v-64h-32zM688 576h32v-64h-32zM688 480h32v-64h-32zM400 464h224v-32h-224z" />
<glyph unicode="&#xec;" glyph-name="uniEC" d="M256 960h64v-32h-64zM352 960h64v-32h-64zM448 960h64v-32h-64zM64 960h64v-32h-64zM160 960h64v-32h-64zM768-32h64v-32h-64zM992 448h32v-64h-32zM736 960h64v-32h-64zM992 256h32v-64h-32zM992 544h32v-64h-32zM832 960h64v-32h-64zM0 864h32v-64h-32zM0 960h32v-64h-32zM0 576h32v-64h-32zM992 160h32v-64h-32zM672-32h64v-32h-64zM992 64h32v-64h-32zM0 768h32v-64h-32zM0 672h32v-64h-32zM960-32h64v-32h-64zM992 352h32v-64h-32zM864-32h64v-32h-64zM992 736h32v-64h-32zM992 640h32v-64h-32zM640 960h64v-32h-64zM928 960h64v-32h-64zM992 928h32v-64h-32zM992 832h32v-64h-32zM576-32h64v-32h-64zM544 960h64v-32h-64zM512 448h-512v-512h512zM480-32h-448v448h448zM668 580l228 230v-138h32v176l-16 16h-176v-32h138l-230-228z" />
<glyph unicode="&#xed;" glyph-name="uniED" d="M0 480h32v448h960v-960h-448v-32h480v1024h-1024zM512 448h-48v-32h16v-16h32zM368 448h64v-32h-64zM80 448h64v-32h-64zM272 448h64v-32h-64zM176 448h64v-32h-64zM32 416h16v32h-48v-48h32zM0 176h32v-64h-32zM0 272h32v-64h-32zM0 368h32v-64h-32zM0 80h32v-64h-32zM48-32h-16v16h-32v-48h48zM272-32h64v-32h-64zM176-32h64v-32h-64zM368-32h64v-32h-64zM80-32h64v-32h-64zM464-64h48v48h-32v-16h-16zM480 272h32v-64h-32zM480 368h32v-64h-32zM480 176h32v-64h-32zM480 80h32v-64h-32zM640 768v-176l16-16h176v32h-138l230 228-24 24-228-230v138z" />
<glyph unicode="&#xee;" glyph-name="uniEE" d="M304 174c-20 6-40 14-58 22l-14-30c20-8 42-16 62-22zM396 154c-22 2-42 6-62 12l-8-32c22-4 42-10 64-12zM454 782c-22-2-44-4-66-8l6-32c20 4 40 6 62 8zM550 752l2 32c-22 0-44 0-66 0l2-32c20 0 42 0 62 0zM488 144c-20 0-42 2-62 4l-4-30c22-4 44-4 66-6zM586 116l-4 32c-20-2-40-4-62-4v-32c22 0 44 2 66 4zM682 132l-6 30c-20-4-42-8-62-12l4-30c22 2 44 6 64 12zM648 772c-20 4-42 6-64 8l-2-32c20-2 40-4 62-8zM744 748c-20 6-42 12-64 18l-6-32c20-4 40-10 60-16zM118 232l20 26c-16 12-32 26-44 42l-24-22c14-16 30-32 48-46zM114 618l-22 22c-16-14-32-32-44-50l26-18c12 16 24 32 40 46zM356 768c-22-4-42-10-64-16l10-30c20 6 40 10 60 14zM6 498l30-6c6 18 12 36 22 54l-28 16c-12-20-20-42-24-64zM262 742c-22-8-42-16-60-26l14-30c18 10 38 18 56 26zM172 700c-20-12-38-24-54-38l20-24c14 12 32 24 50 34zM218 208c-20 10-38 20-54 32l-18-28c18-12 36-22 58-32zM48 304l26 18c-12 18-20 36-28 52l-30-10c8-22 20-42 32-60zM920 608c14-14 26-30 38-46l26 16c-12 18-26 36-42 54zM1002 348l-30 14c-8-18-18-34-32-50l26-20c14 18 26 36 36 56zM1022 484c-4 22-12 44-22 66l-28-14c8-18 14-38 18-58zM1024 448v2l-32-2c0-20-2-40-8-58l30-10c6 22 10 46 10 68zM38 404c-4 14-6 30-6 44 0 4 0 10 0 14l-32 2c0-6 0-10 0-16 0-18 2-34 6-52zM834 710c-18 10-38 18-58 26l-12-30c20-6 38-16 56-26zM866 204l-18 28c-16-12-36-22-54-30l12-28c22 8 40 18 60 30zM776 160l-12 30c-18-8-38-14-58-20l8-30c22 6 42 12 62 20zM918 654c-18 14-36 26-54 38l-18-26c18-12 36-24 50-36zM944 266l-24 22c-14-14-30-26-46-40l18-26c20 14 36 28 52 44z" />
<glyph unicode="&#xef;" glyph-name="uniEF" d="M304 0v32h-28l-12 20-26-16 20-36zM72 326l-32 58 28 16 32-58zM166 226l34-58-28-16-34 58zM216 138l32-58-28-16-32 58zM118 312l32-58-28-16-32 58zM4 448l20-36 28 16-12 20 12 20-28 16zM118 584l-28 16 32 58 28-16zM216 758l-28 16 32 58 28-16zM68 496l-28 16 32 58 28-16zM166 670l-28 16 34 58 28-16zM238 860l26-16 12 20h28v32h-46zM432 896h64v-32h-64zM528 896h64v-32h-64zM336 896h64v-32h-64zM624 896h64v-32h-64zM720 896v-32h28l12-20 26 16-20 36zM906 584l-32 58 28 16 32-58zM808 758l-32 58 28 16 32-58zM858 670l-34 58 28 16 34-58zM956 496l-32 58 28 16 32-58zM1020 448l-20 36-28-16 12-20-12-20 28-16zM804 64l-28 16 32 58 28-16zM858 226l28-16-34-58-28 16zM906 312l28-16-32-58-28 16zM956 400l28-16-32-58-28 16zM720 0h46l20 36-26 16-12-20h-28zM624 32h64v-32h-64zM432 32h64v-32h-64zM528 32h64v-32h-64zM336 32h64v-32h-64z" />
<glyph unicode="&#xf0;" glyph-name="uniF0" d="M992 144h-16v-32h48v48h-32zM880 144h64v-32h-64zM480 144h64v-32h-64zM176 144h64v-32h-64zM576 144h64v-32h-64zM672 144h64v-32h-64zM384 144h64v-32h-64zM784 144h64v-32h-64zM272 144h80v-32h-80zM80 144h64v-32h-64zM48 144h-16v16h-32v-48h48zM0 256h32v-64h-32zM0 336h32v-48h-32zM0 528h32v-64h-32zM0 432h32v-64h-32zM0 608h32v-48h-32zM0 704h32v-64h-32zM32 752h16v32h-48v-48h32zM880 784h64v-32h-64zM384 784h64v-32h-64zM784 784h64v-32h-64zM80 784h64v-32h-64zM176 784h64v-32h-64zM272 784h80v-32h-80zM480 784h64v-32h-64zM672 784h64v-32h-64zM576 784h64v-32h-64zM976 752h16v-16h32v48h-48zM992 608h32v-48h-32zM992 432h32v-64h-32zM992 336h32v-48h-32zM992 256h32v-64h-32zM992 704h32v-64h-32zM992 528h32v-64h-32z" />
<glyph unicode="&#xf1;" glyph-name="uniF1" d="M958 168c16 16 30 34 42 54l-28 14c-10-16-22-32-36-44zM984 630l30 10c-8 22-18 42-32 60l-26-18c12-16 22-34 28-52zM960 726c-16 16-36 28-56 38l-14-28c18-8 34-20 48-32zM982 264l30-12c8 22 12 46 12 68v0h-32c0-20-4-38-10-56zM304 144h64v-32h-64zM432 784h64v-32h-64zM400 144h48v-32h-48zM336 784h64v-32h-64zM206 112h66v32h-64zM240 784h64v-32h-64zM480 144h64v-32h-64zM206 752v32c-24 0-46-4-68-12l12-30c18 6 36 10 56 10zM672 144h64v-32h-64zM768 144v-32h48c6 0 12 0 20 0l-4 32c-6 0-10 0-16 0zM608 784h64v-32h-64zM576 144h64v-32h-64zM528 784h64v-32h-64zM704 784h64v-32h-64zM992 512h32v-64h-32zM992 416h32v-64h-32zM868 118c22 6 44 16 62 28l-16 28c-16-12-34-20-54-24zM864 746l8 30c-18 6-38 8-56 8h-16v-32h16c16 0 32-2 48-6zM0 400h32v-64h-32zM104 140c20-12 42-20 64-24l6 32c-18 2-36 10-54 20zM1022 606l-32-4c2-8 2-18 2-26v-32h32v32c0 10 0 20-2 30zM0 496h32v-64h-32zM76 158l20 26c-14 12-28 26-38 42l-26-16c12-20 26-36 44-52zM122 730l-14 28c-20-12-38-26-54-42l24-22c12 14 28 26 44 36zM0 306c2-22 8-44 16-66l30 12c-8 18-12 38-14 56zM60 672l-26 16c-14-18-22-40-28-62l32-8c4 20 12 38 22 54zM32 576c0 4 0 10 0 14l-32 2c0-4 0-10 0-16v-48h32z" />
<glyph unicode="&#xf2;" glyph-name="uniF2" d="M512 112c282 0 512 150 512 336s-230 336-512 336c-282 0-512-150-512-336s230-336 512-336zM512 752c264 0 480-136 480-304s-216-304-480-304c-264 0-480 136-480 304s216 304 480 304z" />
<glyph unicode="&#xf3;" glyph-name="uniF3" d="M766 0l254 448-254 448h-508l-254-448 254-448zM276 864h472l236-416-236-416h-472l-236 416z" />
<glyph unicode="&#xf4;" glyph-name="uniF4" d="M1024 784h-1024v-672h1024zM992 144h-960v608h960z" />
<glyph unicode="&#xf5;" glyph-name="uniF5" d="M816 784h-608c-114 0-208-94-208-208v-256c0-114 94-208 208-208h608c114 0 208 94 208 208v256c0 114-94 208-208 208zM992 320c0-98-78-176-176-176h-608c-98 0-176 78-176 176v256c0 98 78 176 176 176h608c98 0 176-78 176-176z" />
<glyph unicode="&#xf6;" glyph-name="uniF6" d="M22 2l560 224 8 6 128 240-2 22-112 114h-24l-576-578zM592 570l92-92-120-226-482-192zM764 518l256 288v24l-96 98h-24l-276-276v-24l114-112zM912 890l74-74-234-264-90 88z" />
<glyph unicode="&#xf7;" glyph-name="uniF7" d="M960 608c36 0 64 28 64 64s-28 64-64 64c-30 0-54-20-62-48h-290v80h-192v-80h-290c-8 28-32 48-62 48-36 0-64-28-64-64s28-64 64-64c30 0 54 20 62 48h150c-166-78-192-278-196-336h-80v-192h192v192h-80c2 30 10 96 40 162 52 110 140 168 264 174v-80h192v80c124-6 212-64 264-174 30-66 38-132 40-162h-80v-192h192v192h-80c-4 58-30 258-196 336h150c8-28 32-48 62-48zM960 704c18 0 32-14 32-32s-14-32-32-32c-18 0-32 14-32 32s14 32 32 32zM64 640c-18 0-32 14-32 32s14 32 32 32c18 0 32-14 32-32s-14-32-32-32zM160 160h-128v128h128zM576 608h-128v128h128zM992 160h-128v128h128z" />
<glyph unicode="&#xf8;" glyph-name="uniF8" d="M832 880h-640v80h-192v-192h80v-640h-80v-192h192v80h640v-80h192v192h-80v640h80v192h-192zM32 928h128v-128h-128zM160-32h-128v128h128zM992-32h-128v128h128zM912 128h-80v-80h-640v80h-80v640h80v80h640v-80h80zM864 928h128v-128h-128z" />
<glyph unicode="&#xf9;" glyph-name="uniF9" d="M192 106l246 246h170v170l246 246h170v192h-192v-170l-246-246h-170v-170l-246-246h-170v-192h192zM864 928h128v-128h-128zM448 512h128v-128h-128zM160-32h-128v128h128z" />
<glyph unicode="&#xfa;" glyph-name="uniFA" d="M192 106l662 662h170v192h-192v-170l-662-662h-170v-192h192zM864 928h128v-128h-128zM160-32h-128v128h128z" />
<glyph unicode="&#xfb;" glyph-name="uniFB" d="M880-64h-736v752h736zM176-32h672v688h-672zM688 576h-32v208c0 80-64 144-144 144s-144-64-144-144v-208h-32v208c0 98 78 176 176 176s176-78 176-176z" />
<glyph unicode="&#xfc;" glyph-name="uniFC" d="M880-64h-736v752h736zM176-32h672v688h-672zM492 196h-24l-112 112 24 24 100-102 196 198 24-24zM688 576h-32v208c0 80-64 144-144 144s-144-64-144-144v-208h-32v208c0 98 78 176 176 176s176-78 176-176z" />
<glyph unicode="&#xfd;" glyph-name="uniFD" d="M880-64h-736v752h736zM176-32h672v688h-672zM688 576h-32v208c0 80-64 144-144 144s-144-64-144-144v-208h-32v208c0 98 78 176 176 176s176-78 176-176zM624 176h-224c-40 0-64 24-64 64 0 20 18 56 52 62 14 50 64 98 124 98 68 0 120-42 128-98 32-8 48-42 48-62 0-40-24-64-64-64zM400 272c-22 0-32-24-32-32 0-24 8-32 32-32h224c22 0 32 10 32 32 0 8-10 32-32 32h-16v16c0 52-50 80-96 80s-88-44-96-84l-2-12z" />
<glyph unicode="&#xfe;" glyph-name="uniFE" d="M524 132h-24l-128 128 24 24 116-118 116 118 24-24zM496 464h32v-320h-32zM880-64h-736v752h736zM176-32h672v688h-672zM688 576h-32v208c0 80-64 144-144 144s-144-64-144-144v-208h-32v208c0 98 78 176 176 176s176-78 176-176z" />
<glyph unicode="&#xff;" glyph-name="uniFF" d="M880-64h-736v752h736zM176-32h672v688h-672zM368 304h288v-32h-288zM688 576h-32v208c0 80-64 144-144 144s-144-64-144-144v-208h-32v208c0 98 78 176 176 176s176-78 176-176z" />
<glyph unicode="&#x100;" glyph-name="uni100" d="M496 432h32v-288h-32zM368 304h288v-32h-288zM880-64h-736v752h736zM176-32h672v688h-672zM688 576h-32v208c0 80-64 144-144 144s-144-64-144-144v-208h-32v208c0 98 78 176 176 176s176-78 176-176z" />
<glyph unicode="&#x101;" glyph-name="uni101" d="M576 128h-64c-82 0-144 84-144 160h32c0-60 48-128 112-128h64zM540 70l-24 20 40 54-40 54 24 20 48-64v-20zM688 288h-32c0 60-48 128-112 128h-64v32h64c82 0 144-84 144-160zM516 358l-48 64v20l48 64 24-20-40-54 40-54zM880-64h-736v752h736zM176-32h672v688h-672zM688 576h-32v208c0 80-64 144-144 144s-144-64-144-144v-208h-32v208c0 98 78 176 176 176s176-78 176-176z" />
<glyph unicode="&#x102;" glyph-name="uni102" d="M880-64h-736v752h736zM176-32h672v688h-672zM412 412l224-224-24-24-224 224zM612 412l24-24-224-224-24 24zM688 576h-32v208c0 80-64 144-144 144s-144-64-144-144v-208h-32v208c0 98 78 176 176 176s176-78 176-176z" />
<glyph unicode="&#x103;" glyph-name="uni103" d="M464 224c-62 0-112 50-112 112s50 112 112 112c62 0 112-50 112-112s-50-112-112-112zM464 416c-44 0-80-36-80-80s36-80 80-80c44 0 80 36 80 80s-36 80-80 80zM540 284l128-128-24-24-128 128zM880-64h-736v752h736zM176-32h672v688h-672zM688 576h-32v208c0 80-64 144-144 144s-144-64-144-144v-208h-32v208c0 98 78 176 176 176s176-78 176-176z" />
<glyph unicode="&#x104;" glyph-name="uni104" d="M628 308l-116 118-116-118-24 24 128 128h24l128-128zM496 448h32v-320h-32zM880-64h-736v752h736zM176-32h672v688h-672zM688 576h-32v208c0 80-64 144-144 144s-144-64-144-144v-208h-32v208c0 98 78 176 176 176s176-78 176-176z" />
<glyph unicode="&#x105;" glyph-name="uni105" d="M1024 176h-1024v544h1024zM32 208h960v480h-960zM880 240h-736v16c0 36-28 64-64 64h-16v256h16c36 0 64 28 64 64v16h736v-16c0-36 28-64 64-64h16v-256h-16c-36 0-64-28-64-64zM174 272h676c6 40 38 72 78 78v196c-40 6-72 38-78 78h-676c-6-40-38-72-78-78v-196c40-6 72-38 78-78zM512 304c-80 0-144 64-144 144s64 144 144 144c80 0 144-64 144-144s-64-144-144-144zM512 560c-62 0-112-50-112-112s50-112 112-112c62 0 112 50 112 112s-50 112-112 112z" />
<glyph unicode="&#x106;" glyph-name="uni106" d="M864 144h-864v448h864zM32 176h800v384h-800zM1024 304h-144v32h112v384h-800v-112h-32v144h864zM736 208h-592v16c0 24-8 48-64 48h-16v192h16c56 0 64 24 64 48v16h592v-16c0-40 26-48 48-48h16v-192h-16c-22 0-48-8-48-48zM174 240h532c4 40 32 58 62 62v132c-30 4-58 22-62 62h-532c-4-30-22-58-78-64v-128c56-6 74-34 78-64zM432 272c-52 0-96 44-96 96s44 96 96 96c52 0 96-44 96-96s-44-96-96-96zM432 432c-36 0-64-28-64-64s28-64 64-64c36 0 64 28 64 64s-28 64-64 64z" />
<glyph unicode="&#x107;" glyph-name="uni107" d="M844 0h-664l-186 576h1036zM204 32h616l166 512h-948zM338 886l28-12-128-320-28 12zM686 886l128-320-28-12-128 320z" />
<glyph unicode="&#x108;" glyph-name="uni108" d="M844 0h-664l-186 576h1036zM204 32h616l166 512h-948zM338 886l28-12-128-320-28 12zM686 886l128-320-28-12-128 320zM492 180h-24l-112 112 24 24 100-102 196 198 24-24z" />
<glyph unicode="&#x109;" glyph-name="uni109" d="M844 0h-664l-186 576h1036zM204 32h616l166 512h-948zM338 886l28-12-128-320-28 12zM686 886l128-320-28-12-128 320zM624 176h-224c-40 0-64 24-64 64 0 20 18 56 52 62 14 50 64 98 124 98 68 0 120-42 128-98 32-8 48-42 48-62 0-40-24-64-64-64zM400 272c-22 0-32-24-32-32 0-24 8-32 32-32h224c22 0 32 10 32 32 0 8-10 32-32 32h-16v16c0 52-50 80-96 80s-88-44-96-84l-2-12z" />
<glyph unicode="&#x10a;" glyph-name="uni10A" d="M844 0h-664l-186 576h1036zM204 32h616l166 512h-948zM338 886l28-12-128-320-28 12zM686 886l128-320-28-12-128 320zM524 116h-24l-128 128 24 24 116-118 116 118 24-24zM496 448h32v-320h-32z" />
<glyph unicode="&#x10b;" glyph-name="uni10B" d="M844 0h-664l-186 576h1036zM204 32h616l166 512h-948zM338 886l28-12-128-320-28 12zM686 886l128-320-28-12-128 320zM368 288h288v-32h-288z" />
<glyph unicode="&#x10c;" glyph-name="uni10C" d="M844 0h-664l-186 576h1036zM204 32h616l166 512h-948zM338 886l28-12-128-320-28 12zM686 886l128-320-28-12-128 320zM496 416h32v-288h-32zM368 288h288v-32h-288z" />
<glyph unicode="&#x10d;" glyph-name="uni10D" d="M844 0h-664l-186 576h1036zM204 32h616l166 512h-948zM338 886l28-12-128-320-28 12zM686 886l128-320-28-12-128 320zM560 128h-64c-82 0-144 84-144 160h32c0-60 48-128 112-128h64zM524 70l-24 20 40 54-40 54 24 20 48-64v-20zM672 288h-32c0 60-48 128-112 128h-64v32h64c82 0 144-84 144-160zM500 358l-48 64v20l48 64 24-20-40-54 40-54z" />
<glyph unicode="&#x10e;" glyph-name="uni10E" d="M844 0h-664l-186 576h1036zM204 32h616l166 512h-948zM338 886l28-12-128-320-28 12zM686 886l128-320-28-12-128 320zM412 396l224-224-24-24-224 224zM612 396l24-24-224-224-24 24z" />
<glyph unicode="&#x10f;" glyph-name="uni10F" d="M844 0h-664l-186 576h1036zM204 32h616l166 512h-948zM338 886l28-12-128-320-28 12zM686 886l128-320-28-12-128 320zM464 208c-62 0-112 50-112 112s50 112 112 112c62 0 112-50 112-112s-50-112-112-112zM464 400c-44 0-80-36-80-80s36-80 80-80c44 0 80 36 80 80s-36 80-80 80zM540 268l128-128-24-24-128 128z" />
<glyph unicode="&#x110;" glyph-name="uni110" d="M844 0h-664l-186 576h1036zM204 32h616l166 512h-948zM338 886l28-12-128-320-28 12zM686 886l128-320-28-12-128 320zM628 292l-116 118-116-118-24 24 128 128h24l128-128zM496 432h32v-320h-32z" />
<glyph unicode="&#x111;" glyph-name="uni111" d="M512-64c-136 0-266 54-362 150s-150 226-150 362c0 136 54 266 150 362s226 150 362 150c136 0 266-54 362-150s150-226 150-362c0-136-54-266-150-362s-226-150-362-150zM512 928c-128 0-248-50-340-140-90-92-140-212-140-340s50-248 140-340c92-90 212-140 340-140s248 50 340 140c90 92 140 212 140 340s-50 248-140 340c-92 90-212 140-340 140zM368 704h32v-512h-32zM482 448c-8 0-12 0-12 0h-86v32h88c2 0 60-4 94 26 18 16 26 40 26 70s-8 54-26 70c-34 30-92 26-94 26h-88v32h88c0 0 70 6 116-36 24-22 36-52 36-92s-12-70-36-92c-36-32-84-36-106-36zM496 192c-8 0-14 0-14 0h-98v32h100c2 0 68-6 110 32 20 18 30 46 30 80s-10 62-30 80c-42 38-108 32-110 32h-100v32h100c2 0 80 6 130-40 28-24 42-60 42-104s-14-80-42-104c-38-36-94-40-118-40zM464 752h32v-624h-32z" />
<glyph unicode="&#x112;" glyph-name="uni112" d="M320-64c-62 0-112 50-112 112s50 112 112 112c62 0 112-50 112-112s-50-112-112-112zM320 128c-44 0-80-36-80-80s36-80 80-80c44 0 80 36 80 80s-36 80-80 80zM704-64c-62 0-112 50-112 112s50 112 112 112c62 0 112-50 112-112s-50-112-112-112zM704 128c-44 0-80-36-80-80s36-80 80-80c44 0 80 36 80 80s-36 80-80 80zM416 64h192v-32h-192zM208 46l-62 866h-146v32h174l66-894zM210 256l-4 32 678 48 104 448h-812v32h852l-120-512zM528 794l-28 86h-136l-28-86-32 12 36 106h184l36-106zM880 794l-44 134h-240l-76-46-16 28 84 50h272l52-154z" />
<glyph unicode="&#x113;" glyph-name="uni113" d="M320-64c-62 0-112 50-112 112s50 112 112 112c62 0 112-50 112-112s-50-112-112-112zM320 128c-44 0-80-36-80-80s36-80 80-80c44 0 80 36 80 80s-36 80-80 80zM704-64c-62 0-112 50-112 112s50 112 112 112c62 0 112-50 112-112s-50-112-112-112zM704 128c-44 0-80-36-80-80s36-80 80-80c44 0 80 36 80 80s-36 80-80 80zM416 64h192v-32h-192zM208 46l-62 866h-146v32h174l66-894zM210 256l-4 32 678 48 104 448h-812v32h852l-120-512zM556 452h-24l-112 112 24 24 100-102 196 198 24-24z" />
<glyph unicode="&#x114;" glyph-name="uni114" d="M320-64c-62 0-112 50-112 112s50 112 112 112c62 0 112-50 112-112s-50-112-112-112zM320 128c-44 0-80-36-80-80s36-80 80-80c44 0 80 36 80 80s-36 80-80 80zM704-64c-62 0-112 50-112 112s50 112 112 112c62 0 112-50 112-112s-50-112-112-112zM704 128c-44 0-80-36-80-80s36-80 80-80c44 0 80 36 80 80s-36 80-80 80zM416 64h192v-32h-192zM208 46l-62 866h-146v32h174l66-894zM210 256l-4 32 678 48 104 448h-812v32h852l-120-512zM688 448h-224c-40 0-64 24-64 64 0 20 18 56 52 62 14 50 64 98 124 98 68 0 120-42 128-98 32-8 48-42 48-62 0-40-24-64-64-64zM464 544c-22 0-32-24-32-32 0-24 8-32 32-32h224c22 0 32 10 32 32 0 8-10 32-32 32h-16v16c0 52-50 80-96 80s-88-44-96-84l-2-12z" />
<glyph unicode="&#x115;" glyph-name="uni115" d="M320-64c-62 0-112 50-112 112s50 112 112 112c62 0 112-50 112-112s-50-112-112-112zM320 128c-44 0-80-36-80-80s36-80 80-80c44 0 80 36 80 80s-36 80-80 80zM704-64c-62 0-112 50-112 112s50 112 112 112c62 0 112-50 112-112s-50-112-112-112zM704 128c-44 0-80-36-80-80s36-80 80-80c44 0 80 36 80 80s-36 80-80 80zM416 64h192v-32h-192zM208 46l-62 866h-146v32h174l66-894zM210 256l-4 32 678 48 104 448h-812v32h852l-120-512z" />
<glyph unicode="&#x116;" glyph-name="uni116" d="M320-64c-62 0-112 50-112 112s50 112 112 112c62 0 112-50 112-112s-50-112-112-112zM320 128c-44 0-80-36-80-80s36-80 80-80c44 0 80 36 80 80s-36 80-80 80zM704-64c-62 0-112 50-112 112s50 112 112 112c62 0 112-50 112-112s-50-112-112-112zM704 128c-44 0-80-36-80-80s36-80 80-80c44 0 80 36 80 80s-36 80-80 80zM416 64h192v-32h-192zM208 46l-62 866h-146v32h174l66-894zM210 256l-4 32 678 48 104 448h-812v32h852l-120-512zM588 388h-24l-128 128 24 24 116-118 116 118 24-24zM560 720h32v-320h-32z" />
<glyph unicode="&#x117;" glyph-name="uni117" d="M320-64c-62 0-112 50-112 112s50 112 112 112c62 0 112-50 112-112s-50-112-112-112zM320 128c-44 0-80-36-80-80s36-80 80-80c44 0 80 36 80 80s-36 80-80 80zM704-64c-62 0-112 50-112 112s50 112 112 112c62 0 112-50 112-112s-50-112-112-112zM704 128c-44 0-80-36-80-80s36-80 80-80c44 0 80 36 80 80s-36 80-80 80zM416 64h192v-32h-192zM208 46l-62 866h-146v32h174l66-894zM210 256l-4 32 678 48 104 448h-812v32h852l-120-512zM432 560h288v-32h-288z" />
<glyph unicode="&#x118;" glyph-name="uni118" d="M320-64c-62 0-112 50-112 112s50 112 112 112c62 0 112-50 112-112s-50-112-112-112zM320 128c-44 0-80-36-80-80s36-80 80-80c44 0 80 36 80 80s-36 80-80 80zM704-64c-62 0-112 50-112 112s50 112 112 112c62 0 112-50 112-112s-50-112-112-112zM704 128c-44 0-80-36-80-80s36-80 80-80c44 0 80 36 80 80s-36 80-80 80zM416 64h192v-32h-192zM208 46l-62 866h-146v32h174l66-894zM210 256l-4 32 678 48 104 448h-812v32h852l-120-512zM560 688h32v-288h-32zM432 560h288v-32h-288z" />
<glyph unicode="&#x119;" glyph-name="uni119" d="M320-64c-62 0-112 50-112 112s50 112 112 112c62 0 112-50 112-112s-50-112-112-112zM320 128c-44 0-80-36-80-80s36-80 80-80c44 0 80 36 80 80s-36 80-80 80zM704-64c-62 0-112 50-112 112s50 112 112 112c62 0 112-50 112-112s-50-112-112-112zM704 128c-44 0-80-36-80-80s36-80 80-80c44 0 80 36 80 80s-36 80-80 80zM416 64h192v-32h-192zM208 46l-62 866h-146v32h174l66-894zM210 256l-4 32 678 48 104 448h-812v32h852l-120-512zM640 384h-64c-82 0-144 84-144 160h32c0-60 48-128 112-128h64zM604 326l-24 20 40 54-40 54 24 20 48-64v-20zM752 544h-32c0 60-48 128-112 128h-64v32h64c82 0 144-84 144-160zM580 614l-48 64v20l48 64 24-20-40-54 40-54z" />
<glyph unicode="&#x11a;" glyph-name="uni11A" d="M320-64c-62 0-112 50-112 112s50 112 112 112c62 0 112-50 112-112s-50-112-112-112zM320 128c-44 0-80-36-80-80s36-80 80-80c44 0 80 36 80 80s-36 80-80 80zM704-64c-62 0-112 50-112 112s50 112 112 112c62 0 112-50 112-112s-50-112-112-112zM704 128c-44 0-80-36-80-80s36-80 80-80c44 0 80 36 80 80s-36 80-80 80zM416 64h192v-32h-192zM208 46l-62 866h-146v32h174l66-894zM210 256l-4 32 678 48 104 448h-812v32h852l-120-512zM476 668l224-224-24-24-224 224zM676 668l24-24-224-224-24 24z" />
<glyph unicode="&#x11b;" glyph-name="uni11B" d="M320-64c-62 0-112 50-112 112s50 112 112 112c62 0 112-50 112-112s-50-112-112-112zM320 128c-44 0-80-36-80-80s36-80 80-80c44 0 80 36 80 80s-36 80-80 80zM704-64c-62 0-112 50-112 112s50 112 112 112c62 0 112-50 112-112s-50-112-112-112zM704 128c-44 0-80-36-80-80s36-80 80-80c44 0 80 36 80 80s-36 80-80 80zM416 64h192v-32h-192zM208 46l-62 866h-146v32h174l66-894zM210 256l-4 32 678 48 104 448h-812v32h852l-120-512zM528 480c-62 0-112 50-112 112s50 112 112 112c62 0 112-50 112-112s-50-112-112-112zM528 672c-44 0-80-36-80-80s36-80 80-80c44 0 80 36 80 80s-36 80-80 80zM604 540l128-128-24-24-128 128z" />
<glyph unicode="&#x11c;" glyph-name="uni11C" d="M320-64c-62 0-112 50-112 112s50 112 112 112c62 0 112-50 112-112s-50-112-112-112zM320 128c-44 0-80-36-80-80s36-80 80-80c44 0 80 36 80 80s-36 80-80 80zM704-64c-62 0-112 50-112 112s50 112 112 112c62 0 112-50 112-112s-50-112-112-112zM704 128c-44 0-80-36-80-80s36-80 80-80c44 0 80 36 80 80s-36 80-80 80zM416 64h192v-32h-192zM208 46l-62 866h-146v32h174l66-894zM210 256l-4 32 678 48 104 448h-812v32h852l-120-512zM692 564l-116 118-116-118-24 24 128 128h24l128-128zM560 704h32v-320h-32z" />
<glyph unicode="&#x11d;" glyph-name="uni11D" d="M512-64c-136 0-266 54-362 150s-150 226-150 362c0 136 54 266 150 362s226 150 362 150c136 0 266-54 362-150s150-226 150-362c0-136-54-266-150-362s-226-150-362-150zM512 928c-128 0-248-50-340-140-90-92-140-212-140-340s50-248 140-340c92-90 212-140 340-140s248 50 340 140c90 92 140 212 140 340s-50 248-140 340c-92 90-212 140-340 140zM512 192c-134 0-208 90-208 256s74 256 208 256c154 0 174-74 176-76l-32-8c0 0-16 52-144 52-146 0-176-122-176-224s30-224 176-224c128 0 144 52 144 52l32-8c-2-2-22-76-176-76zM496 768h32v-640h-32z" />
<glyph unicode="&#x11e;" glyph-name="uni11E" d="M512-64c-136 0-266 54-362 150s-150 226-150 362c0 136 54 266 150 362s226 150 362 150c136 0 266-54 362-150s150-226 150-362c0-136-54-266-150-362s-226-150-362-150zM512 928c-128 0-248-50-340-140-90-92-140-212-140-340s50-248 140-340c92-90 212-140 340-140s248 50 340 140c90 92 140 212 140 340s-50 248-140 340c-92 90-212 140-340 140zM512 192c-134 0-208 90-208 256s74 256 208 256c154 0 174-74 176-76l-32-8c0 0-16 52-144 52-146 0-176-122-176-224s30-224 176-224c128 0 144 52 144 52l32-8c-2-2-22-76-176-76zM562 742l28-12-240-560-28 12zM642 742l28-12-240-560-28 12z" />
<glyph unicode="&#x11f;" glyph-name="uni11F" d="M1024 96h-1024v704h1024zM32 128h960v640h-960zM16 704h992v-32h-992zM16 576h992v-32h-992zM96 224h64v-32h-64zM192 224h464v-32h-464z" />
<glyph unicode="&#x120;" glyph-name="uni120" d="M512 10l-518 516 286 354h464l286-354zM528 848v-778l458 460-258 318zM38 530l458-460v778h-200zM498 42l-228 484 98 342 32-8-94-330 220-476zM526 42l-28 12 220 476-94 330 32 8 98-342zM16 544h992v-32h-992z" />
<glyph unicode="&#x121;" glyph-name="uni121" d="M464 752h32v-624h-32zM528 752h32v-624h-32zM512 208c-66 0-112 12-138 38-22 24-22 48-22 58h32c0-8 0-22 14-34 12-14 44-30 114-30 60 0 102 12 124 34s20 52 20 70c0 4 0 6 0 8 0 0-4 96-144 96-134 0-144 114-144 126 0 8-4 52 26 86 24 30 64 44 118 44 158 0 160-110 160-112h-32c0 4-4 80-128 80-44 0-76-10-94-32-22-26-18-62-18-62v-2c0-4 2-96 112-96 172 0 176-126 176-128s0-4 0-6c0-22 2-62-28-94-30-30-78-44-148-44zM512-64c-136 0-266 54-362 150s-150 226-150 362c0 136 54 266 150 362s226 150 362 150c136 0 266-54 362-150s150-226 150-362c0-136-54-266-150-362s-226-150-362-150zM512 928c-128 0-248-50-340-140-90-92-140-212-140-340s50-248 140-340c92-90 212-140 340-140s248 50 340 140c90 92 140 212 140 340s-50 248-140 340c-92 90-212 140-340 140z" />
<glyph unicode="&#x122;" glyph-name="uni122" d="M512-64c-136 0-266 54-362 150s-150 226-150 362c0 136 54 266 150 362s226 150 362 150c136 0 266-54 362-150s150-226 150-362c0-136-54-266-150-362s-226-150-362-150zM512 928c-128 0-248-50-340-140-90-92-140-212-140-340s50-248 140-340c92-90 212-140 340-140s248 50 340 140c90 92 140 212 140 340s-50 248-140 340c-92 90-212 140-340 140zM512 192c-134 0-208 90-208 256s74 256 208 256c154 0 174-74 176-76l-32-8c0 0-16 52-144 52-146 0-176-122-176-224s30-224 176-224c128 0 144 52 144 52l32-8c-2-2-22-76-176-76zM240 496h304v-32h-304zM240 432h304v-32h-304z" />
<glyph unicode="&#x123;" glyph-name="uni123" d="M512-64c-136 0-266 54-362 150s-150 226-150 362c0 136 54 266 150 362s226 150 362 150c136 0 266-54 362-150s150-226 150-362c0-136-54-266-150-362s-226-150-362-150zM512 928c-128 0-248-50-340-140-90-92-140-212-140-340s50-248 140-340c92-90 212-140 340-140s248 50 340 140c90 92 140 212 140 340s-50 248-140 340c-92 90-212 140-340 140zM416 192h-32v496h272v-32h-240zM400 464h224v-32h-224zM320 368h224v-32h-224z" />
<glyph unicode="&#x124;" glyph-name="uni124" d="M1024 512h-1024v176h1024zM32 544h960v112h-960zM944 16h-864v528h864zM112 48h800v464h-800zM496 672h32v-640h-32zM512 656c-6 0-60 0-112 20-74 26-112 74-112 140 0 50 36 82 92 82 70 0 148-48 148-114v-128zM380 866c-22 0-60-8-60-50 0-106 130-124 176-128v96c0 46-62 82-116 82zM512 656h-16v128c0 66 78 114 148 114 56 0 92-32 92-82 0-66-38-114-112-140-52-20-106-20-112-20zM644 866c-54 0-116-36-116-82v-96c20 2 54 6 86 18 60 22 90 58 90 110 0 42-38 50-60 50z" />
<glyph unicode="&#x125;" glyph-name="uni125" d="M448-64c-120 0-232 46-316 132-86 84-132 196-132 316s46 232 130 316c86 86 198 132 318 132h16v-432h432v-16c0-120-46-232-132-316-84-86-196-132-316-132 0 0 0 0 0 0zM432 800c-106-4-204-48-278-122-78-78-122-182-122-294s44-216 122-294c78-78 182-122 294-122 0 0 0 0 0 0v0c112 0 216 44 294 122 74 74 118 172 122 278h-432zM1024 496h-464v464h16c120 0 232-46 318-132 84-84 130-196 130-316zM592 528h400c-4 106-46 204-122 278-74 74-172 118-278 122z" />
<glyph unicode="&#x126;" glyph-name="uni126" d="M368-64h-224v576h224zM176-32h160v512h-160zM880-64h-224v416h224zM688-32h160v352h-160zM624-64h-224v1024h224zM432-32h160v960h-160z" />
<glyph unicode="&#x127;" glyph-name="uni127" d="M896 352c-36 0-64 28-64 64s28 64 64 64c36 0 64-28 64-64s-28-64-64-64zM896 448c-18 0-32-14-32-32s14-32 32-32c18 0 32 14 32 32s-14 32-32 32zM352 832c-36 0-64 28-64 64s28 64 64 64c36 0 64-28 64-64s-28-64-64-64zM352 928c-18 0-32-14-32-32s14-32 32-32c18 0 32 14 32 32s-14 32-32 32zM640 96c-36 0-64 28-64 64s28 64 64 64c36 0 64-28 64-64s-28-64-64-64zM640 192c-18 0-32-14-32-32s14-32 32-32c18 0 32 14 32 32s-14 32-32 32zM112 400c-36 0-64 28-64 64s28 64 64 64c36 0 64-28 64-64s-28-64-64-64zM112 496c-18 0-32-14-32-32s14-32 32-32c18 0 32 14 32 32s-14 32-32 32zM306 872l28-16-192-352-28 16zM852 394l24-20-176-192-24 20zM1024-64h-1024v128h1024zM32-32h960v64h-960zM400 870l224-656-32-12-224 656z" />
<glyph unicode="&#x128;" glyph-name="uni128" d="M368-64h-224v784h224zM176-32h160v720h-160zM880-64h-224v320h224zM688-32h160v256h-160zM624-64h-224v528h224zM432-32h160v464h-160zM268 956l608-608-24-24-608 608zM864 320h-176v32h160v160h32v-176z" />
<glyph unicode="&#x129;" glyph-name="uni129" d="M368-64h-224v320h224zM176-32h160v256h-160zM880-64h-224v752h224zM688-32h160v688h-160zM624-64h-224v528h224zM432-32h160v464h-160zM804 956l24-24-592-592-24 24zM832 768h-32v160h-160v32h176l16-16z" />
<glyph unicode="&#x12a;" glyph-name="uni12A" d="M512-64c-136 0-266 54-362 150s-150 226-150 362c0 136 54 266 150 362s226 150 362 150c136 0 266-54 362-150s150-226 150-362c0-136-54-266-150-362s-226-150-362-150zM512 928c-128 0-248-50-340-140-90-92-140-212-140-340s50-248 140-340c92-90 212-140 340-140s248 50 340 140c90 92 140 212 140 340s-50 248-140 340c-92 90-212 140-340 140zM512 192c-134 0-208 90-208 256s74 256 208 256c154 0 174-74 176-76l-32-8c0 0-16 52-144 52-146 0-176-122-176-224s30-224 176-224c116 0 140 42 144 50v94h-80v32h112v-132c-2-2-22-76-176-76zM496 768h32v-640h-32z" />
<glyph unicode="&#x12b;" glyph-name="uni12B" d="M512-64c-136 0-266 54-362 150s-150 226-150 362c0 136 54 266 150 362s226 150 362 150c136 0 266-54 362-150s150-226 150-362c0-136-54-266-150-362s-226-150-362-150zM512 928c-128 0-248-50-340-140-90-92-140-212-140-340s50-248 140-340c92-90 212-140 340-140s248 50 340 140c90 92 140 212 140 340s-50 248-140 340c-92 90-212 140-340 140zM384 704h32v-512h-32zM676 180l-284 284 270 252 20-24-242-228 260-260zM320 480h304v-32h-304z" />
<glyph unicode="&#x12c;" glyph-name="uni12C" d="M512-64c-136 0-266 54-362 150s-150 226-150 362c0 136 54 266 150 362s226 150 362 150c136 0 266-54 362-150s150-226 150-362c0-136-54-266-150-362s-226-150-362-150zM512 928c-128 0-248-50-340-140-90-92-140-212-140-340s50-248 140-340c92-90 212-140 340-140s248 50 340 140c90 92 140 212 140 340s-50 248-140 340c-92 90-212 140-340 140zM656 160h-240v432c0 80 60 128 160 128 90 0 110-56 112-58l-32-12c0 2-14 38-80 38-48 0-128-12-128-96v-400h208zM336 192h96v-32h-96zM336 464h224v-32h-224zM336 368h224v-32h-224z" />
<glyph unicode="&#x12d;" glyph-name="uni12D" d="M1024 96h-54l-248 192h-616l-106 106v204l106 106h616l248 192h54zM982 128h10v736h-10l-248-192h-616l-86-86v-180l86-86h616zM298 0h-130l122 310 28-12-102-266h62l156 280 28-16zM672 688h32v-384h-32zM560 688h32v-384h-32z" />
<glyph unicode="&#x12e;" glyph-name="uni12E" d="M704 32c-176 0-320 144-320 320s144 320 320 320c176 0 320-144 320-320s-144-320-320-320zM704 640c-158 0-288-130-288-288s130-288 288-288c158 0 288 130 288 288s-130 288-288 288zM704 128c-124 0-224 100-224 224s100 224 224 224c124 0 224-100 224-224s-100-224-224-224zM704 544c-106 0-192-86-192-192s86-192 192-192c106 0 192 86 192 192s-86 192-192 192zM624 32h-624v128h480v-32h-448v-64h592zM480 128h-448v128h400v-32h-368v-64h416zM432 224h-368v128h352v-32h-320v-64h336zM416 320h-416v128h416v-32h-384v-64h384zM416 416h-384v128h432v-32h-400v-64h352zM464 512h-464v128h560v-32h-528v-64h432zM560 608h-528v128h624v-96h-32v64h-560v-64h496zM624 704h-624v128h624zM32 736h560v64h-560z" />
<glyph unicode="&#x12f;" glyph-name="uni12F" d="M512-64c-136 0-266 54-362 150s-150 226-150 362c0 136 54 266 150 362s226 150 362 150c136 0 266-54 362-150s150-226 150-362c0-136-54-266-150-362s-226-150-362-150zM512 928c-128 0-248-50-340-140-90-92-140-212-140-340s50-248 140-340c92-90 212-140 340-140s248 50 340 140c90 92 140 212 140 340s-50 248-140 340c-92 90-212 140-340 140zM656 176h-42l-246 462v-462h-32v512h42l246-462v462h32zM272 496h448v-32h-448zM272 400h448v-32h-448z" />
<glyph unicode="&#x130;" glyph-name="uni130" d="M512-64c-136 0-266 54-362 150s-150 226-150 362c0 136 54 266 150 362s226 150 362 150c136 0 266-54 362-150s150-226 150-362c0-136-54-266-150-362s-226-150-362-150zM512 928c-128 0-248-50-340-140-90-92-140-212-140-340s50-248 140-340c92-90 212-140 340-140s248 50 340 140c90 92 140 212 140 340s-50 248-140 340c-92 90-212 140-340 140zM368 704h32v-512h-32zM510 384c-10 0-14 0-16 0h-110v32h112c2 0 78-6 124 36 24 22 36 52 36 92s-12 70-36 92c-46 42-122 36-122 36h-114v32h112c2 0 90 8 146-44 30-28 46-66 46-116s-16-88-46-116c-44-40-104-44-132-44zM304 592h448v-32h-448zM304 528h448v-32h-448z" />
<glyph unicode="&#x131;" glyph-name="uni131" d="M512-64c-136 0-266 54-362 150s-150 226-150 362c0 136 54 266 150 362s226 150 362 150c136 0 266-54 362-150s150-226 150-362c0-136-54-266-150-362s-226-150-362-150zM512 928c-128 0-248-50-340-140-90-92-140-212-140-340s50-248 140-340c92-90 212-140 340-140s248 50 340 140c90 92 140 212 140 340s-50 248-140 340c-92 90-212 140-340 140zM656 160h-240v432c0 80 60 128 160 128 90 0 110-56 112-58l-30-12c-2 2-16 38-82 38-48 0-128-12-128-96v-400h208zM336 192h96v-32h-96zM336 464h224v-32h-224z" />
<glyph unicode="&#x132;" glyph-name="uni132" d="M512 736h224v-32h-224zM288 592h448v-32h-448zM288 432h448v-32h-448zM288 272h448v-32h-448zM288 112h448v-32h-448zM176-74v800l234 234h438v-1034l-80 40-64-32-64 32-64-32-64 32-64-32-64 32-64-32-64 32zM640 2l64-32 64 32 48-24v950h-394l-214-214v-736l48 24 64-32 64 32 64-32 64 32 64-32zM432 704h-240v32h208v208h32z" />
<glyph unicode="&#x133;" glyph-name="uni133" d="M176-74v800l234 234h438v-1034l-80 40-64-32-64 32-64-32-64 32-64-32-64 32-64-32-64 32zM640 2l64-32 64 32 48-24v950h-394l-214-214v-736l48 24 64-32 64 32 64-32 64 32 64-32zM432 704h-240v32h208v208h32zM400 608h32v-416h-32zM496 400h-80v32h80c4 0 80 2 80 64 0 80-76 80-80 80h-80v32h80c38 0 112-24 112-112 0-76-74-96-112-96zM512 192h-96v32h96c4 0 96 2 96 80 0 30-8 54-26 70-28 28-70 26-70 26h-80v32h80c2 0 56 2 94-36 22-22 34-52 34-92 0-88-84-112-128-112zM496 640h32v-480h-32z" />
<glyph unicode="&#x134;" glyph-name="uni134" d="M176-74v800l234 234h438v-1034l-80 40-64-32-64 32-64-32-64 32-64-32-64 32-64-32-64 32zM640 2l64-32 64 32 48-24v950h-394l-214-214v-736l48 24 64-32 64 32 64-32 64 32 64-32zM432 704h-240v32h208v208h32zM544 208c-72 0-160 36-160 208 0 130 52 192 160 192 122 0 142-54 144-60l-32-8c0 0-16 36-112 36-88 0-128-50-128-160 0-118 42-176 128-176 100 0 112 52 112 52l32-8c-2-2-20-76-144-76zM528 640h32v-464h-32z" />
<glyph unicode="&#x135;" glyph-name="uni135" d="M176-74v800l234 234h438v-1034l-80 40-64-32-64 32-64-32-64 32-64-32-64 32-64-32-64 32zM640 2l64-32 64 32 48-24v950h-394l-214-214v-736l48 24 64-32 64 32 64-32 64 32 64-32zM432 704h-240v32h208v208h32zM512 240c-42 0-74 10-92 28-20 20-20 44-20 52h32c0-6 0-18 10-30 12-12 36-18 70-18 38 0 66 8 80 24 16 16 16 38 16 52v4c0 0-6 64-96 64-78 0-112 24-112 80v2c0 20 0 46 20 66 18 20 48 28 92 28 42 0 72-10 92-30 20-22 20-48 20-50h-32c0 2 0 16-12 28-14 12-36 20-68 20-34 0-58-6-68-18-12-10-12-28-12-44v-2c0-22 0-48 80-48 106 0 128-76 128-96v-4c0-16 0-50-24-76-22-20-56-32-104-32zM528 624h32v-432h-32zM464 624h32v-432h-32z" />
<glyph unicode="&#x136;" glyph-name="uni136" d="M176-74v800l234 234h438v-1034l-80 40-64-32-64 32-64-32-64 32-64-32-64 32-64-32-64 32zM640 2l64-32 64 32 48-24v950h-394l-214-214v-736l48 24 64-32 64 32 64-32 64 32 64-32zM432 704h-240v32h208v208h32zM544 208c-72 0-160 36-160 208 0 130 52 192 160 192 122 0 142-54 144-60l-32-8c0 0-16 36-112 36-88 0-128-50-128-160 0-118 42-176 128-176 100 0 112 52 112 52l32-8c-2-2-20-76-144-76zM336 448h240v-32h-240zM336 384h240v-32h-240z" />
<glyph unicode="&#x137;" glyph-name="uni137" d="M176-74v800l234 234h438v-1034l-80 40-64-32-64 32-64-32-64 32-64-32-64 32-64-32-64 32zM640 2l64-32 64 32 48-24v950h-394l-214-214v-736l48 24 64-32 64 32 64-32 64 32 64-32zM432 704h-240v32h208v208h32zM448 192h-32v448h224v-32h-192zM432 432h176v-32h-176zM368 352h176v-32h-176z" />
</font>
</defs>
</svg>
