<?xml version="1.0" encoding="utf-8"?>
<!-- Generator: Adobe Illustrator 15.0.0, SVG Export Plug-In . SVG Version: 6.00 Build 0)  -->
<!DOCTYPE svg PUBLIC "-//W3C//DTD SVG 1.1//EN" "http://www.w3.org/Graphics/SVG/1.1/DTD/svg11.dtd">
<svg version="1.1" id="Layer_1" xmlns="http://www.w3.org/2000/svg" xmlns:xlink="http://www.w3.org/1999/xlink" x="0px" y="0px"
	 width="493.309px" height="101.891px" viewBox="0 0 493.309 101.891" enable-background="new 0 0 493.309 101.891"
	 xml:space="preserve">
<path fill="#FFFFFF" d="M134.987,78.094c0,2.704-0.915,4.979-2.744,6.82c-1.83,1.842-4.084,2.764-6.766,2.764V84.67
	c1.829,0,3.383-0.627,4.661-1.879c1.228-1.229,1.842-2.92,1.842-5.074V23.928h3.007V78.094z"/>
<path fill="#FFFFFF" d="M160.208,41.519c5.062,0,9.366,1.778,12.912,5.337c3.545,3.56,5.318,7.871,5.318,12.932
	c0,5.012-1.773,9.303-5.318,12.875c-3.546,3.57-7.85,5.355-12.912,5.355c-5.011,0-9.303-1.785-12.874-5.355
	c-3.57-3.572-5.356-7.863-5.356-12.875c0-5.061,1.786-9.372,5.356-12.932C150.905,43.298,155.197,41.519,160.208,41.519z
	 M149.552,49.111c-2.944,2.957-4.417,6.517-4.417,10.676s1.473,7.705,4.417,10.638c2.944,2.933,6.496,4.397,10.656,4.397
	s7.711-1.466,10.657-4.397c2.943-2.933,4.416-6.479,4.416-10.638s-1.473-7.719-4.416-10.676c-2.946-2.957-6.497-4.435-10.657-4.435
	C156.048,44.677,152.496,46.154,149.552,49.111z"/>
<path fill="#FFFFFF" d="M196.405,47.082c-1.629,0.325-3.283,1.34-4.962,3.044c-2.832,2.809-4.298,6.179-4.397,10.112v16.839h-3.007
	V44.45h3.007v5.939c0.602-0.877,1.315-1.729,2.143-2.557c1.829-1.829,3.684-3.046,5.563-3.646L196.405,47.082z"/>
<path fill="#FFFFFF" d="M235.233,77.077h-3.007v-6.652c-0.577,0.776-1.203,1.517-1.879,2.219c-3.558,3.584-7.869,5.375-12.93,5.375
	c-5.012,0-9.302-1.785-12.874-5.355c-3.571-3.572-5.356-7.863-5.356-12.875c0-5.061,1.785-9.372,5.356-12.932
	c3.571-3.559,7.861-5.337,12.874-5.337c5.061,0,9.372,1.778,12.93,5.337c0.677,0.702,1.302,1.44,1.879,2.219V23.928h3.007V77.077
	L235.233,77.077z M232.226,62.719v-5.9c-0.551-2.933-1.929-5.502-4.135-7.707c-2.957-2.957-6.515-4.435-10.675-4.435
	s-7.712,1.478-10.656,4.435c-2.945,2.957-4.417,6.517-4.417,10.676s1.472,7.705,4.417,10.639c2.944,2.932,6.496,4.396,10.656,4.396
	s7.718-1.478,10.675-4.436C230.297,68.182,231.675,65.626,232.226,62.719z"/>
<path fill="#FFFFFF" d="M277.407,77.077h-3.008v-6.652c-0.576,0.776-1.203,1.517-1.879,2.219c-3.559,3.584-7.869,5.375-12.93,5.375
	c-5.014,0-9.303-1.785-12.875-5.355c-3.571-3.572-5.356-7.863-5.356-12.875c0-5.061,1.785-9.372,5.356-12.932
	c3.573-3.559,7.862-5.337,12.875-5.337c5.061,0,9.371,1.778,12.93,5.337c0.676,0.702,1.303,1.44,1.879,2.219V44.45h3.008V77.077z
	 M274.399,62.719v-5.9c-0.551-2.933-1.93-5.502-4.135-7.707c-2.956-2.957-6.516-4.435-10.674-4.435
	c-4.16,0-7.713,1.478-10.656,4.435c-2.946,2.957-4.417,6.517-4.417,10.676s1.471,7.705,4.417,10.639
	c2.943,2.932,6.496,4.396,10.656,4.396c4.158,0,7.718-1.478,10.674-4.436C272.47,68.182,273.849,65.626,274.399,62.719z"/>
<path fill="#FFFFFF" d="M312.663,69.222l3.158,1.165c-0.576,0.776-1.229,1.529-1.955,2.256c-3.559,3.584-7.869,5.375-12.93,5.375
	c-5.012,0-9.303-1.785-12.874-5.355c-3.571-3.572-5.356-7.876-5.356-12.912c0-5.037,1.785-9.335,5.356-12.895
	c3.571-3.559,7.862-5.337,12.874-5.337c5.061,0,9.371,1.778,12.93,5.337c0.727,0.729,1.379,1.479,1.955,2.256l-3.158,1.165
	c-0.324-0.4-0.677-0.802-1.053-1.202c-2.956-2.933-6.516-4.396-10.674-4.396c-4.135,0-7.676,1.472-10.618,4.415
	c-2.946,2.946-4.417,6.498-4.417,10.657s1.471,7.711,4.417,10.655c2.942,2.945,6.483,4.417,10.618,4.417
	c4.158,0,7.718-1.478,10.674-4.436C311.986,70.01,312.338,69.623,312.663,69.222z"/>
<path fill="#FFFFFF" d="M321.309,23.928h3.007v22.214c2.506-2.431,5.538-3.646,9.099-3.646c3.832,0,6.959,1.207,9.377,3.626
	s3.664,5.457,3.739,9.115v21.839h-3.007V55.539c0-2.781-1.003-5.148-3.007-7.104c-2.007-1.955-4.373-2.933-7.104-2.933
	c-2.758,0-5.125,0.966-7.104,2.895c-0.902,0.879-1.565,1.793-1.992,2.745v25.936h-3.007V23.928z"/>
<path fill="#FFFFFF" d="M355.288,58.096c-0.074,0.525-0.113,1.09-0.113,1.69c0,4.159,1.473,7.705,4.418,10.638
	c2.943,2.933,6.496,4.397,10.656,4.397c4.158,0,7.717-1.478,10.674-4.436c0.5-0.502,0.978-1.027,1.429-1.578l3.194,1.127
	c-0.375,0.627-1.164,1.528-2.366,2.707c-3.56,3.584-7.869,5.375-12.931,5.375c-5.014,0-9.305-1.785-12.875-5.355
	c-3.57-3.572-5.355-7.863-5.355-12.875c0-5.061,1.785-9.372,5.355-12.932c3.57-3.559,7.861-5.337,12.875-5.337
	c5.062,0,9.371,1.778,12.931,5.337c3.131,3.157,4.696,6.905,4.696,11.24L355.288,58.096L355.288,58.096z M355.853,55.052h28.642
	c-0.703-2.28-1.893-4.261-3.57-5.939c-2.957-2.957-6.516-4.435-10.676-4.435s-7.719,1.478-10.674,4.435
	C357.819,50.891,356.579,52.871,355.853,55.052z"/>
<path fill="#F07D71" d="M421.704,39.526l13.195,32.702l12.93-48.301h3.119l-14.244,53.148h-3.047l-13.568-33.604L406.52,77.077
	h-3.082L389.23,23.928h3.082l12.894,48.301h0.037l13.155-32.702L421.704,39.526L421.704,39.526z"/>
<path fill="#F07D71" d="M465.004,23.928c8.746,0.05,15.525,2.492,20.336,7.328c5.314,5.338,7.969,11.754,7.969,19.245
	c0,7.544-2.654,13.972-7.969,19.284c-4.811,4.812-11.59,7.241-20.336,7.291h-9.848V23.928H465.004z M458.165,27.047v46.948h6.803
	c7.645,0,13.67-2.129,18.08-6.39c4.711-4.712,7.066-10.412,7.066-17.104c0-6.666-2.355-12.365-7.066-17.102
	c-4.41-4.234-10.438-6.354-18.08-6.354h-6.803V27.047z"/>
<path fill="#FFFFFF" d="M72.982,52.543c-7.473,0.307-19.644,0.863-19.644,0.863c-0.038,0.924-0.806,12.42-1.112,19.891
	c-0.816,19.896,2.174,23.957,7.366,27.013c9.944,5.845,24.601-4.414,15.264-16.799c-3.127-4.146-8.437-3.722-11.14-2.712
	c-8.496,3.175-4.143,16.467,3.974,14.5c1.467-0.353,5.539-2.611,3.56-6.934c-1.038-2.269-5.342-2.758-5.837,0.407
	c4.222-0.834,4.672,4.444,2.048,4.919c-6.615,1.196-8.146-9.737-1.675-10.854c11.598-1.997,12.994,17.066-0.42,16.729
	c-2.435-0.063-4.408-0.939-5.724-2.195c-7.905-7.538-4.23-41.488-4.216-41.874c0.389-0.017,34.09-3.442,41.628,4.462
	c1.256,1.316,2.134,3.289,2.194,5.726c0.34,13.414-18.725,12.017-16.726,0.42c1.114-6.47,12.049-4.939,10.852,1.675
	c-0.472,2.624-5.753,2.174-4.919-2.047c-3.162,0.495-2.674,4.798-0.408,5.836c4.322,1.979,6.579-2.093,6.934-3.561
	c1.966-8.116-11.327-12.469-14.5-3.975c-1.009,2.704-1.435,8.016,2.712,11.141c12.386,9.339,22.642-5.318,16.798-15.264
	C96.94,54.719,92.876,51.728,72.982,52.543z"/>
<path fill="#FFFFFF" d="M49.452,73.297c-0.304-7.471-0.863-19.643-0.863-19.643c-0.924-0.038-12.418-0.806-19.89-1.111
	C8.804,51.728,4.74,54.719,1.687,59.909c-5.845,9.944,4.414,24.602,16.796,15.264c4.148-3.128,3.723-8.438,2.713-11.141
	c-3.174-8.496-16.467-4.144-14.501,3.975c0.353,1.467,2.614,5.539,6.936,3.561c2.268-1.037,2.754-5.339-0.408-5.838
	c0.835,4.222-4.447,4.673-4.919,2.049c-1.197-6.614,9.738-8.144,10.853-1.676C21.156,77.7,2.092,79.097,2.43,65.682
	c0.062-2.436,0.94-4.407,2.196-5.725c7.538-7.902,41.488-4.231,41.876-4.216c0.016,0.387,3.441,34.09-4.464,41.628
	c-1.316,1.256-3.29,2.135-5.724,2.195c-13.415,0.339-12.017-18.726-0.419-16.727c6.469,1.114,4.937,12.049-1.678,10.853
	c-2.622-0.472-2.172-5.755,2.05-4.919c-0.497-3.163-4.799-2.676-5.839-0.407c-1.976,4.321,2.095,6.581,3.561,6.934
	c8.118,1.967,12.47-11.325,3.975-14.5c-2.704-1.01-8.014-1.435-11.14,2.712c-9.34,12.385,5.319,22.644,15.263,16.799
	C47.279,97.254,50.269,93.191,49.452,73.297z"/>
<path fill="#FFFFFF" d="M28.698,49.555c7.472-0.306,19.642-0.864,19.642-0.864c0.039-0.924,0.807-12.418,1.111-19.89
	c0.817-19.896-2.173-23.96-7.366-27.014c-9.944-5.844-24.602,4.414-15.263,16.799c3.127,4.146,8.438,3.723,11.14,2.713
	c8.495-3.175,4.143-16.468-3.975-14.502c-1.466,0.354-5.537,2.613-3.559,6.935c1.038,2.27,5.341,2.757,5.837-0.407
	c-4.222,0.836-4.672-4.444-2.049-4.919c6.616-1.194,8.146,9.738,1.676,10.854c-11.597,1.998-12.994-17.064,0.42-16.726
	c2.434,0.061,4.409,0.938,5.723,2.194c7.906,7.537,4.231,41.486,4.217,41.877c-0.388,0.015-34.09,3.438-41.628-4.466
	c-1.255-1.315-2.133-3.288-2.195-5.723C2.091,23.001,21.154,24.4,19.156,35.995c-1.115,6.474-12.047,4.939-10.853-1.675
	c0.474-2.623,5.754-2.173,4.921,2.049c3.161-0.497,2.674-4.8,0.406-5.838c-4.322-1.978-6.58,2.094-6.935,3.56
	c-1.965,8.118,11.329,12.471,14.501,3.978c1.009-2.705,1.435-8.016-2.712-11.141C6.101,17.587-4.158,32.244,1.688,42.19
	C4.74,47.381,8.803,50.371,28.698,49.555z"/>
<path fill="#F07D71" d="M52.227,28.799c0.306,7.475,0.865,19.646,0.865,19.646c0.923,0.038,12.417,0.805,19.888,1.111
	c19.896,0.816,23.959-2.175,27.012-7.367c5.845-9.942-4.413-24.604-16.796-15.262c-4.149,3.125-3.722,8.436-2.714,11.139
	c3.173,8.495,16.467,4.144,14.502-3.975c-0.354-1.467-2.614-5.539-6.932-3.56c-2.271,1.037-2.758,5.34,0.406,5.837
	c-0.835-4.222,4.447-4.672,4.917-2.051c1.197,6.616-9.738,8.146-10.852,1.679c-2-11.599,17.065-12.995,16.728,0.419
	c-0.063,2.437-0.94,4.408-2.197,5.725c-7.537,7.904-41.489,4.229-41.876,4.218c-0.016-0.389-3.439-34.094,4.464-41.629
	c1.316-1.257,3.289-2.135,5.724-2.194c13.414-0.34,12.018,18.724,0.42,16.725C59.317,18.143,60.85,7.21,67.462,8.405
	c2.624,0.475,2.174,5.757-2.048,4.92c0.497,3.164,4.799,2.677,5.837,0.407c1.979-4.32-2.094-6.58-3.56-6.934
	c-8.118-1.966-12.47,11.327-3.975,14.501c2.703,1.011,8.014,1.434,11.14-2.713c9.34-12.385-5.318-22.642-15.264-16.799
	C54.401,4.842,51.411,8.906,52.227,28.799z"/>
<g>
	<rect x="35.937" y="36.755" fill="#E85F56" width="4.948" height="4.948"/>
	<rect x="31.696" y="32.514" fill="#E85F56" width="4.241" height="4.24"/>
	<rect x="26.748" y="27.566" fill="#E85F56" width="4.948" height="4.947"/>
</g>
<g>
	<rect x="35.937" y="60.789" fill="#E85F56" width="4.948" height="4.947"/>
	<rect x="31.696" y="65.736" fill="#E85F56" width="4.241" height="4.242"/>
	<rect x="26.748" y="69.979" fill="#E85F56" width="4.948" height="4.947"/>
</g>
<g>
	<rect x="59.263" y="36.755" fill="#FFFFFF" width="4.947" height="4.948"/>
	<rect x="64.21" y="32.514" fill="#FFFFFF" width="4.241" height="4.24"/>
	<rect x="68.452" y="27.566" fill="#FFFFFF" width="4.948" height="4.947"/>
</g>
<g>
	<rect x="68.452" y="69.979" fill="#E85F56" width="4.948" height="4.947"/>
	<rect x="64.21" y="65.736" fill="#E85F56" width="4.241" height="4.242"/>
	<rect x="59.263" y="60.789" fill="#E85F56" width="4.947" height="4.947"/>
</g>
<path fill="#FFFFFF" d="M134.987,78.094c0,2.704-0.915,4.979-2.744,6.82c-1.83,1.842-4.084,2.764-6.766,2.764V84.67
	c1.829,0,3.383-0.627,4.661-1.879c1.228-1.229,1.842-2.92,1.842-5.074V23.928h3.007V78.094z"/>
<path fill="#FFFFFF" d="M160.208,41.519c5.062,0,9.366,1.778,12.912,5.337c3.545,3.56,5.318,7.871,5.318,12.932
	c0,5.012-1.773,9.303-5.318,12.875c-3.546,3.57-7.85,5.355-12.912,5.355c-5.011,0-9.303-1.785-12.874-5.355
	c-3.57-3.572-5.356-7.863-5.356-12.875c0-5.061,1.786-9.372,5.356-12.932C150.905,43.298,155.197,41.519,160.208,41.519z
	 M149.552,49.111c-2.944,2.957-4.417,6.517-4.417,10.676s1.473,7.705,4.417,10.638c2.944,2.933,6.496,4.397,10.656,4.397
	s7.711-1.466,10.657-4.397c2.943-2.933,4.416-6.479,4.416-10.638s-1.473-7.719-4.416-10.676c-2.946-2.957-6.497-4.435-10.657-4.435
	C156.048,44.677,152.496,46.154,149.552,49.111z"/>
<path fill="#FFFFFF" d="M196.405,47.082c-1.629,0.325-3.283,1.34-4.962,3.044c-2.832,2.809-4.298,6.179-4.397,10.112v16.839h-3.007
	V44.45h3.007v5.939c0.602-0.877,1.315-1.729,2.143-2.557c1.829-1.829,3.684-3.046,5.563-3.646L196.405,47.082z"/>
<path fill="#FFFFFF" d="M235.233,77.077h-3.007v-6.652c-0.577,0.776-1.203,1.517-1.879,2.219c-3.558,3.584-7.869,5.375-12.93,5.375
	c-5.012,0-9.302-1.785-12.874-5.355c-3.571-3.572-5.356-7.863-5.356-12.875c0-5.061,1.785-9.372,5.356-12.932
	c3.571-3.559,7.861-5.337,12.874-5.337c5.061,0,9.372,1.778,12.93,5.337c0.677,0.702,1.302,1.44,1.879,2.219V23.928h3.007V77.077
	L235.233,77.077z M232.226,62.719v-5.9c-0.551-2.933-1.929-5.502-4.135-7.707c-2.957-2.957-6.515-4.435-10.675-4.435
	s-7.712,1.478-10.656,4.435c-2.945,2.957-4.417,6.517-4.417,10.676s1.472,7.705,4.417,10.639c2.944,2.932,6.496,4.396,10.656,4.396
	s7.718-1.478,10.675-4.436C230.297,68.182,231.675,65.626,232.226,62.719z"/>
<path fill="#FFFFFF" d="M277.407,77.077h-3.008v-6.652c-0.576,0.776-1.203,1.517-1.879,2.219c-3.559,3.584-7.869,5.375-12.93,5.375
	c-5.014,0-9.303-1.785-12.875-5.355c-3.571-3.572-5.356-7.863-5.356-12.875c0-5.061,1.785-9.372,5.356-12.932
	c3.573-3.559,7.862-5.337,12.875-5.337c5.061,0,9.371,1.778,12.93,5.337c0.676,0.702,1.303,1.44,1.879,2.219V44.45h3.008V77.077z
	 M274.399,62.719v-5.9c-0.551-2.933-1.93-5.502-4.135-7.707c-2.956-2.957-6.516-4.435-10.674-4.435
	c-4.16,0-7.713,1.478-10.656,4.435c-2.946,2.957-4.417,6.517-4.417,10.676s1.471,7.705,4.417,10.639
	c2.943,2.932,6.496,4.396,10.656,4.396c4.158,0,7.718-1.478,10.674-4.436C272.47,68.182,273.849,65.626,274.399,62.719z"/>
<path fill="#FFFFFF" d="M312.663,69.222l3.158,1.165c-0.576,0.776-1.229,1.529-1.955,2.256c-3.559,3.584-7.869,5.375-12.93,5.375
	c-5.012,0-9.303-1.785-12.874-5.355c-3.571-3.572-5.356-7.876-5.356-12.912c0-5.037,1.785-9.335,5.356-12.895
	c3.571-3.559,7.862-5.337,12.874-5.337c5.061,0,9.371,1.778,12.93,5.337c0.727,0.729,1.379,1.479,1.955,2.256l-3.158,1.165
	c-0.324-0.4-0.677-0.802-1.053-1.202c-2.956-2.933-6.516-4.396-10.674-4.396c-4.135,0-7.676,1.472-10.618,4.415
	c-2.946,2.946-4.417,6.498-4.417,10.657s1.471,7.711,4.417,10.655c2.942,2.945,6.483,4.417,10.618,4.417
	c4.158,0,7.718-1.478,10.674-4.436C311.986,70.01,312.338,69.623,312.663,69.222z"/>
<path fill="#FFFFFF" d="M321.309,23.928h3.007v22.214c2.506-2.431,5.538-3.646,9.099-3.646c3.832,0,6.959,1.207,9.377,3.626
	s3.664,5.457,3.739,9.115v21.839h-3.007V55.539c0-2.781-1.003-5.148-3.007-7.104c-2.007-1.955-4.373-2.933-7.104-2.933
	c-2.758,0-5.125,0.966-7.104,2.895c-0.902,0.879-1.565,1.793-1.992,2.745v25.936h-3.007V23.928z"/>
<path fill="#FFFFFF" d="M355.288,58.096c-0.074,0.525-0.113,1.09-0.113,1.69c0,4.159,1.473,7.705,4.418,10.638
	c2.943,2.933,6.496,4.397,10.656,4.397c4.158,0,7.717-1.478,10.674-4.436c0.5-0.502,0.978-1.027,1.429-1.578l3.194,1.127
	c-0.375,0.627-1.164,1.528-2.366,2.707c-3.56,3.584-7.869,5.375-12.931,5.375c-5.014,0-9.305-1.785-12.875-5.355
	c-3.57-3.572-5.355-7.863-5.355-12.875c0-5.061,1.785-9.372,5.355-12.932c3.57-3.559,7.861-5.337,12.875-5.337
	c5.062,0,9.371,1.778,12.931,5.337c3.131,3.157,4.696,6.905,4.696,11.24L355.288,58.096L355.288,58.096z M355.853,55.052h28.642
	c-0.703-2.28-1.893-4.261-3.57-5.939c-2.957-2.957-6.516-4.435-10.676-4.435s-7.719,1.478-10.674,4.435
	C357.819,50.891,356.579,52.871,355.853,55.052z"/>
<path fill="#F07D71" d="M421.704,39.526l13.195,32.702l12.93-48.301h3.119l-14.244,53.148h-3.047l-13.568-33.604L406.52,77.077
	h-3.082L389.23,23.928h3.082l12.894,48.301h0.037l13.155-32.702L421.704,39.526L421.704,39.526z"/>
<path fill="#F07D71" d="M465.004,23.928c8.746,0.05,15.525,2.492,20.336,7.328c5.314,5.338,7.969,11.754,7.969,19.245
	c0,7.544-2.654,13.972-7.969,19.284c-4.811,4.812-11.59,7.241-20.336,7.291h-9.848V23.928H465.004z M458.165,27.047v46.948h6.803
	c7.645,0,13.67-2.129,18.08-6.39c4.711-4.712,7.066-10.412,7.066-17.104c0-6.666-2.355-12.365-7.066-17.102
	c-4.41-4.234-10.438-6.354-18.08-6.354h-6.803V27.047z"/>
<path fill="#FFFFFF" d="M72.982,52.543c-7.473,0.307-19.644,0.863-19.644,0.863c-0.038,0.924-0.806,12.42-1.112,19.891
	c-0.816,19.896,2.174,23.957,7.366,27.013c9.944,5.845,24.601-4.414,15.264-16.799c-3.127-4.146-8.437-3.722-11.14-2.712
	c-8.496,3.175-4.143,16.467,3.974,14.5c1.467-0.353,5.539-2.611,3.56-6.934c-1.038-2.269-5.342-2.758-5.837,0.407
	c4.222-0.834,4.672,4.444,2.048,4.919c-6.615,1.196-8.146-9.737-1.675-10.854c11.598-1.997,12.994,17.066-0.42,16.729
	c-2.435-0.063-4.408-0.939-5.724-2.195c-7.905-7.538-4.23-41.488-4.216-41.874c0.389-0.017,34.09-3.442,41.628,4.462
	c1.256,1.316,2.134,3.289,2.194,5.726c0.34,13.414-18.725,12.017-16.726,0.42c1.114-6.47,12.049-4.939,10.852,1.675
	c-0.472,2.624-5.753,2.174-4.919-2.047c-3.162,0.495-2.674,4.798-0.408,5.836c4.322,1.979,6.579-2.093,6.934-3.561
	c1.966-8.116-11.327-12.469-14.5-3.975c-1.009,2.704-1.435,8.016,2.712,11.141c12.386,9.339,22.642-5.318,16.798-15.264
	C96.94,54.719,92.876,51.728,72.982,52.543z"/>
<path fill="#FFFFFF" d="M49.452,73.297c-0.304-7.471-0.863-19.643-0.863-19.643c-0.924-0.038-12.418-0.806-19.89-1.111
	C8.804,51.728,4.74,54.719,1.687,59.909c-5.845,9.944,4.414,24.602,16.796,15.264c4.148-3.128,3.723-8.438,2.713-11.141
	c-3.174-8.496-16.467-4.144-14.501,3.975c0.353,1.467,2.614,5.539,6.936,3.561c2.268-1.037,2.754-5.339-0.408-5.838
	c0.835,4.222-4.447,4.673-4.919,2.049c-1.197-6.614,9.738-8.144,10.853-1.676C21.156,77.7,2.092,79.097,2.43,65.682
	c0.062-2.436,0.94-4.407,2.196-5.725c7.538-7.902,41.488-4.231,41.876-4.216c0.016,0.387,3.441,34.09-4.464,41.628
	c-1.316,1.256-3.29,2.135-5.724,2.195c-13.415,0.339-12.017-18.726-0.419-16.727c6.469,1.114,4.937,12.049-1.678,10.853
	c-2.622-0.472-2.172-5.755,2.05-4.919c-0.497-3.163-4.799-2.676-5.839-0.407c-1.976,4.321,2.095,6.581,3.561,6.934
	c8.118,1.967,12.47-11.325,3.975-14.5c-2.704-1.01-8.014-1.435-11.14,2.712c-9.34,12.385,5.319,22.644,15.263,16.799
	C47.279,97.254,50.269,93.191,49.452,73.297z"/>
<path fill="#FFFFFF" d="M28.698,49.555c7.472-0.306,19.642-0.864,19.642-0.864c0.039-0.924,0.807-12.418,1.111-19.89
	c0.817-19.896-2.173-23.96-7.366-27.014c-9.944-5.844-24.602,4.414-15.263,16.799c3.127,4.146,8.438,3.723,11.14,2.713
	c8.495-3.175,4.143-16.468-3.975-14.502c-1.466,0.354-5.537,2.613-3.559,6.935c1.038,2.27,5.341,2.757,5.837-0.407
	c-4.222,0.836-4.672-4.444-2.049-4.919c6.616-1.194,8.146,9.738,1.676,10.854c-11.597,1.998-12.994-17.064,0.42-16.726
	c2.434,0.061,4.409,0.938,5.723,2.194c7.906,7.537,4.231,41.486,4.217,41.877c-0.388,0.015-34.09,3.438-41.628-4.466
	c-1.255-1.315-2.133-3.288-2.195-5.723C2.091,23.001,21.154,24.4,19.156,35.995c-1.115,6.474-12.047,4.939-10.853-1.675
	c0.474-2.623,5.754-2.173,4.921,2.049c3.161-0.497,2.674-4.8,0.406-5.838c-4.322-1.978-6.58,2.094-6.935,3.56
	c-1.965,8.118,11.329,12.471,14.501,3.978c1.009-2.705,1.435-8.016-2.712-11.141C6.101,17.587-4.158,32.244,1.688,42.19
	C4.74,47.381,8.803,50.371,28.698,49.555z"/>
<path fill="#F07D71" d="M52.227,28.799c0.306,7.475,0.865,19.646,0.865,19.646c0.923,0.038,12.417,0.805,19.888,1.111
	c19.896,0.816,23.959-2.175,27.012-7.367c5.845-9.942-4.413-24.604-16.796-15.262c-4.149,3.125-3.722,8.436-2.714,11.139
	c3.173,8.495,16.467,4.144,14.502-3.975c-0.354-1.467-2.614-5.539-6.932-3.56c-2.271,1.037-2.758,5.34,0.406,5.837
	c-0.835-4.222,4.447-4.672,4.917-2.051c1.197,6.616-9.738,8.146-10.852,1.679c-2-11.599,17.065-12.995,16.728,0.419
	c-0.063,2.437-0.94,4.408-2.197,5.725c-7.537,7.904-41.489,4.229-41.876,4.218c-0.016-0.389-3.439-34.094,4.464-41.629
	c1.316-1.257,3.289-2.135,5.724-2.194c13.414-0.34,12.018,18.724,0.42,16.725C59.317,18.143,60.85,7.21,67.462,8.405
	c2.624,0.475,2.174,5.757-2.048,4.92c0.497,3.164,4.799,2.677,5.837,0.407c1.979-4.32-2.094-6.58-3.56-6.934
	c-8.118-1.966-12.47,11.327-3.975,14.501c2.703,1.011,8.014,1.434,11.14-2.713c9.34-12.385-5.318-22.642-15.264-16.799
	C54.401,4.842,51.411,8.906,52.227,28.799z"/>
<g>
	<rect x="35.937" y="36.755" fill="#E85F56" width="4.948" height="4.948"/>
	<rect x="31.696" y="32.514" fill="#E85F56" width="4.241" height="4.24"/>
	<rect x="26.748" y="27.566" fill="#E85F56" width="4.948" height="4.947"/>
</g>
<g>
	<rect x="35.937" y="60.789" fill="#E85F56" width="4.948" height="4.947"/>
	<rect x="31.696" y="65.736" fill="#E85F56" width="4.241" height="4.242"/>
	<rect x="26.748" y="69.979" fill="#E85F56" width="4.948" height="4.947"/>
</g>
<g>
	<rect x="59.263" y="36.755" fill="#FFFFFF" width="4.947" height="4.948"/>
	<rect x="64.21" y="32.514" fill="#FFFFFF" width="4.241" height="4.24"/>
	<rect x="68.452" y="27.566" fill="#FFFFFF" width="4.948" height="4.947"/>
</g>
<g>
	<rect x="68.452" y="69.979" fill="#E85F56" width="4.948" height="4.947"/>
	<rect x="64.21" y="65.736" fill="#E85F56" width="4.241" height="4.242"/>
	<rect x="59.263" y="60.789" fill="#E85F56" width="4.947" height="4.947"/>
</g>
</svg>
